<svg width="1440" height="137" viewBox="0 0 1440 137" fill="none" xmlns="http://www.w3.org/2000/svg">
<g clip-path="url(#clip0_1025_154)">
<path opacity="0.33" d="M681.688 44.799C384.81 -76.172 298.614 91.379 215.331 44.799C89.096 -26.167 -7 55.211 -7 55.211V137H1449V55.211C1449 55.211 1358.58 19.454 1310.83 15.07C1263.07 10.549 1219.39 31.921 1200.46 45.347C1166.54 69.048 1078.16 125.081 1004.77 130.561C931.392 136.041 709.934 56.17 681.688 44.799Z" fill="#404040"/>
<path opacity="0.66" d="M1061.7 44.799C995.456 44.799 949.301 76.583 873.734 98.366C832.093 110.285 654.898 112.203 503.91 44.799C352.923 -22.605 370.395 91.927 286.675 44.799C161.459 -25.071 -7 82.474 -7 82.474V137H1449V86.995C1449 86.995 1407.94 112.34 1314.9 112.34C1172.65 112.203 1122.42 44.799 1061.7 44.799Z" fill="#404040"/>
<path d="M1108.44 97.407C817.242 176.182 721.146 7.67198 533.176 70.692C345.352 134.534 345.352 129.602 262.069 108.778C179.368 87.954 185.629 75.487 123.894 65.075C34.6416 49.731 -7 137 -7 137H1449C1449 137 1434.59 80.967 1327.28 71.103C1219.97 61.239 1200.9 72.61 1108.44 97.407Z" fill="#404040"/>
</g>
<defs>
<clipPath id="clip0_1025_154">
<rect width="1456" height="137" fill="white" transform="matrix(1 0 0 -1 -7 137)"/>
</clipPath>
</defs>
</svg>
