<svg width="42" height="42" viewBox="0 0 42 42" fill="none" xmlns="http://www.w3.org/2000/svg">
<g clip-path="url(#clip0_1025_125)">
<path d="M28.875 0H13.125C9.64403 0 6.30564 1.38281 3.84422 3.84422C1.38281 6.30564 0 9.64403 0 13.125L0 28.875C0 32.356 1.38281 35.6944 3.84422 38.1558C6.30564 40.6172 9.64403 42 13.125 42H28.875C32.356 42 35.6944 40.6172 38.1558 38.1558C40.6172 35.6944 42 32.356 42 28.875V13.125C42 9.64403 40.6172 6.30564 38.1558 3.84422C35.6944 1.38281 32.356 0 28.875 0ZM38.0625 28.875C38.0625 33.9412 33.9412 38.0625 28.875 38.0625H13.125C8.05875 38.0625 3.9375 33.9412 3.9375 28.875V13.125C3.9375 8.05875 8.05875 3.9375 13.125 3.9375H28.875C33.9412 3.9375 38.0625 8.05875 38.0625 13.125V28.875Z" fill="url(#paint0_linear_1025_125)"/>
<path d="M21 10.5C18.2152 10.5 15.5445 11.6062 13.5754 13.5754C11.6062 15.5445 10.5 18.2152 10.5 21C10.5 23.7848 11.6062 26.4555 13.5754 28.4246C15.5445 30.3938 18.2152 31.5 21 31.5C23.7848 31.5 26.4555 30.3938 28.4246 28.4246C30.3938 26.4555 31.5 23.7848 31.5 21C31.5 18.2152 30.3938 15.5445 28.4246 13.5754C26.4555 11.6062 23.7848 10.5 21 10.5ZM21 27.5625C19.2602 27.5604 17.5922 26.8683 16.3619 25.6381C15.1317 24.4078 14.4396 22.7398 14.4375 21C14.4375 17.3801 17.3828 14.4375 21 14.4375C24.6173 14.4375 27.5625 17.3801 27.5625 21C27.5625 24.6173 24.6173 27.5625 21 27.5625Z" fill="url(#paint1_linear_1025_125)"/>
<path d="M32.2878 11.1116C33.0605 11.1116 33.6869 10.4852 33.6869 9.71249C33.6869 8.93978 33.0605 8.31337 32.2878 8.31337C31.5151 8.31337 30.8887 8.93978 30.8887 9.71249C30.8887 10.4852 31.5151 11.1116 32.2878 11.1116Z" fill="url(#paint2_linear_1025_125)"/>
</g>
<defs>
<linearGradient id="paint0_linear_1025_125" x1="3.843" y1="38.157" x2="38.157" y2="3.843" gradientUnits="userSpaceOnUse">
<stop stop-color="#FFC107"/>
<stop offset="0.507" stop-color="#F44336"/>
<stop offset="0.99" stop-color="#9C27B0"/>
</linearGradient>
<linearGradient id="paint1_linear_1025_125" x1="13.5765" y1="28.4235" x2="28.4235" y2="13.5765" gradientUnits="userSpaceOnUse">
<stop stop-color="#FFC107"/>
<stop offset="0.507" stop-color="#F44336"/>
<stop offset="0.99" stop-color="#9C27B0"/>
</linearGradient>
<linearGradient id="paint2_linear_1025_125" x1="31.2982" y1="10.7021" x2="33.2774" y2="8.72287" gradientUnits="userSpaceOnUse">
<stop stop-color="#FFC107"/>
<stop offset="0.507" stop-color="#F44336"/>
<stop offset="0.99" stop-color="#9C27B0"/>
</linearGradient>
<clipPath id="clip0_1025_125">
<rect width="42" height="42" fill="white"/>
</clipPath>
</defs>
</svg>
