<svg width="384" height="384" viewBox="0 0 384 384" fill="none" xmlns="http://www.w3.org/2000/svg">
<path fill-rule="evenodd" clip-rule="evenodd" d="M263.375 37.9435L265.58 41.2009C270.664 48.7043 276.07 56.1733 281.607 63.3421C285.392 68.2421 289.592 73.5894 294.034 77.899C301.805 85.4397 309.964 91.3031 318.836 97.3633C322.105 99.5966 325.431 102.037 328.807 104.08C329.647 104.589 330.487 105.099 331.328 105.608L335.067 107.872L334.846 112.238C334.344 122.171 333.223 132.391 331.974 142.247C329.249 163.747 325.247 185.501 319.22 206.326C313.883 224.766 306.378 244.489 295.172 260.198C289.891 267.604 283.991 274.588 277.743 281.195C261.765 298.09 243.056 313.124 223.91 326.288C214.813 332.543 205.245 338.724 195.58 344.089L192.083 346.056L188.482 344.118C178.91 338.854 169.299 332.612 160.311 326.44C141.084 313.238 122.292 298.152 106.256 281.193C100.009 274.587 94.1088 267.604 88.8268 260.198C77.6225 244.489 70.1172 224.766 64.7799 206.326C58.7532 185.501 54.7502 163.747 52.0262 142.247C50.7771 132.391 49.6551 122.171 49.1535 112.238L48.9321 107.872L52.6721 105.608C53.512 105.099 54.3529 104.589 55.1929 104.08C58.569 102.037 61.8953 99.5966 65.1645 97.3633C74.0358 91.3031 82.1951 85.4397 89.9652 77.899C94.4072 73.5894 98.608 68.2421 102.393 63.3421C107.93 56.1742 113.336 48.7043 118.419 41.2009L120.625 37.9435C168.315 38.4606 215.685 38.4606 263.375 37.9435ZM124.478 45.3046C124.478 45.3046 106.095 72.4456 95.0613 83.1511C84.0292 93.8574 71.6094 101.824 69.2927 103.406C66.9769 104.988 61.5053 108.814 58.9836 110.341C56.4628 111.868 56.4628 111.868 56.4628 111.868C56.4628 111.868 61.381 209.115 94.7855 255.948C128.081 302.63 191.587 337.473 191.996 337.698V337.703L192 337.699L192.005 337.703V337.698C192.413 337.473 255.918 302.63 289.215 255.948C322.618 209.115 327.537 111.868 327.537 111.868C327.537 111.868 327.537 111.868 325.016 110.341C322.495 108.814 317.023 104.988 314.707 103.406C312.391 101.824 299.971 93.8574 288.938 83.1511C277.905 72.4456 259.521 45.3046 259.521 45.3046C214.405 45.7944 169.594 45.7944 124.478 45.3046Z" fill="white" fill-opacity="0.35"/>
<path fill-rule="evenodd" clip-rule="evenodd" d="M117.203 254.038C114.361 250.622 110.291 245.582 108.465 241.925C107.661 240.312 106.371 237.267 106.371 235.395V233.847L107.546 234.855C110.991 237.807 116.56 242.335 120.599 244.248C124.641 246.163 128.97 247.615 133.389 248.34C135.768 248.731 138.146 249.127 140.527 249.499L141.812 249.693L140.513 251.179L140.419 250.203L128.657 253.494C131.397 254.155 134.138 254.77 136.879 255.339L136.342 255.954C133.315 255.32 130.285 254.634 127.252 253.888L123.488 269.265L123.414 269.255L123.361 269.239C117.509 267.478 110.235 264.944 104.939 261.913C102.447 260.485 99.7735 259.043 97.348 257.505L95.3887 256.264L97.7072 256.191C101.482 256.075 105.423 255.946 109.167 255.544C111.839 255.258 114.59 254.696 117.203 254.038ZM122.972 268.375C120.517 267.614 111.009 264.566 105.293 261.294C98.6896 257.515 97.729 256.904 97.729 256.904C97.729 256.904 105.298 256.676 109.244 256.253C113.189 255.828 117.651 254.659 117.651 254.659L118.255 254.186C118.255 254.186 111.123 245.653 109.103 241.607C107.083 237.562 107.083 235.395 107.083 235.395C107.083 235.395 115.525 242.632 120.296 244.892C125.065 247.152 129.485 248.422 133.274 249.043C135.408 249.393 137.406 249.716 138.743 249.933L127.24 253.151L126.73 253.026L126.66 253.314L126.636 253.32L126.554 253.74L122.972 268.375Z" fill="white" fill-opacity="0.35"/>
<path fill-rule="evenodd" clip-rule="evenodd" d="M267.82 254.025C270.434 254.684 273.185 255.245 275.856 255.533C279.6 255.934 283.543 256.062 287.316 256.178L289.635 256.25L287.675 257.493C285.25 259.03 282.578 260.473 280.085 261.901C274.777 264.939 267.527 267.456 261.663 269.227L261.61 269.243L260.528 269.394L256.751 253.888C253.986 254.522 251.219 255.119 248.451 255.679L247.909 255.059C250.398 254.559 252.885 254.03 255.374 253.469L244.604 250.192L244.511 251.167L243.212 249.68L244.495 249.488C246.876 249.115 249.257 248.718 251.634 248.328C256.053 247.604 260.383 246.15 264.423 244.236C268.462 242.323 274.032 237.794 277.477 234.843L278.653 233.834V235.382C278.653 237.256 277.364 240.3 276.559 241.914C274.732 245.57 270.662 250.611 267.82 254.025ZM261.457 268.545C261.457 268.545 273.127 265.063 279.73 261.283C286.334 257.503 287.293 256.89 287.293 256.89C287.293 256.89 279.726 256.664 275.78 256.24C271.834 255.816 267.373 254.647 267.373 254.647L266.769 254.173C266.769 254.173 273.901 245.64 275.921 241.595C277.941 237.549 277.941 235.382 277.941 235.382C277.941 235.382 269.499 242.619 264.729 244.88C259.958 247.139 255.538 248.41 251.75 249.031C249.574 249.388 247.541 249.718 246.204 249.934L256.776 253.151L257.277 253.036L257.348 253.324L257.37 253.331L257.448 253.738L261.068 268.598L261.457 268.545Z" fill="white" fill-opacity="0.35"/>
<path fill-rule="evenodd" clip-rule="evenodd" d="M126.66 253.314L127.24 253.151L138.743 249.933L141.047 249.288L141.761 256.728L140.927 256.675C140.407 256.643 139.886 256.607 139.364 256.57C135.332 255.775 131.295 254.881 127.252 253.888L127.057 254.683C126.682 254.424 126.482 254.117 126.553 253.753L126.636 253.32L126.66 253.314ZM139.448 255.86C140.382 255.928 140.972 255.964 140.972 255.964L140.419 250.203L128.657 253.494C132.254 254.361 135.851 255.15 139.448 255.86Z" fill="white" fill-opacity="0.35"/>
<path fill-rule="evenodd" clip-rule="evenodd" d="M257.451 253.753C257.523 254.127 257.323 254.44 256.95 254.703L256.751 253.888C252.261 254.918 247.766 255.849 243.266 256.68L243.978 249.256L246.204 249.934L256.776 253.151L256.777 253.151L257.37 253.331L257.451 253.753ZM244.065 255.805L244.604 250.192L255.374 253.469C251.604 254.318 247.835 255.098 244.065 255.805Z" fill="white" fill-opacity="0.35"/>
<path fill-rule="evenodd" clip-rule="evenodd" d="M127.422 253.196C128.283 253.407 129.145 253.613 130.006 253.816L130.175 253.855L130.343 253.895C130.792 254 131.242 254.105 131.692 254.207L131.86 254.245L132.03 254.284L132.197 254.322L132.366 254.361L132.535 254.399L133.209 254.549L133.377 254.587L133.546 254.625L134.221 254.772L134.39 254.81L134.558 254.846L134.895 254.919L135.064 254.956C135.514 255.052 135.963 255.148 136.413 255.242L136.529 255.267L136.581 255.278C137.171 255.401 137.761 255.522 138.35 255.64L138.436 255.659L139.448 255.86L139.464 255.862C174.309 262.737 209.192 262.348 244.065 255.805L244.242 255.772L244.767 255.672L244.773 255.671L244.949 255.638L245.832 255.468L246.009 255.434L246.186 255.399L246.892 255.261L247.069 255.226L247.245 255.191L247.422 255.156L247.599 255.121L247.776 255.085L247.953 255.05L249.189 254.799L249.366 254.762L249.543 254.726L249.72 254.69L249.896 254.654L250.073 254.616L251.133 254.394L251.309 254.357L251.486 254.32L251.663 254.283L251.84 254.244C252.311 254.144 252.782 254.042 253.253 253.939L253.43 253.9L253.606 253.862L253.783 253.823L255.02 253.548L255.197 253.509L255.374 253.469L256.592 253.193L256.775 253.151H256.776L257.277 253.036L263.342 277.935L262.67 278.115C215.587 290.776 168.418 290.803 121.336 277.978L120.666 277.796L122.972 268.375L123.926 264.483L126.73 253.026L127.422 253.196ZM127.252 253.888C170.98 264.637 214.096 263.674 256.751 253.888L262.485 277.428C215.759 289.992 168.777 290.163 121.523 277.291L127.252 253.888ZM136.581 255.278C137.171 255.401 137.761 255.522 138.35 255.64L136.581 255.278Z" fill="white" fill-opacity="0.35"/>
<path fill-rule="evenodd" clip-rule="evenodd" d="M175.551 203.735C174.531 204.758 173.851 205.953 174.474 207.715C175.097 209.478 184.902 215.277 185.922 215.902C186.943 216.528 189.777 218.005 191.194 219.825C192.61 221.644 192.951 222.326 192.951 222.326C192.951 222.326 195.898 218.062 198.448 216.528C200.998 214.992 208.196 210.785 209.556 209.08C210.916 207.374 210.916 205.953 210.18 204.872C209.442 203.792 204.455 199.926 202.471 199.698C200.489 199.472 198.561 200.267 196.748 200.722C188.185 202.87 183.013 196.251 175.551 203.735Z" fill="white" fill-opacity="0.35"/>
<path fill-rule="evenodd" clip-rule="evenodd" d="M177.931 199.983C177.931 199.983 175.552 201.234 174.701 202.2C173.851 203.166 172.859 203.877 172.689 205.356C172.519 206.834 172.745 207.43 173.454 208.596C174.163 209.762 175.097 210.955 175.097 210.955C175.097 210.955 174.73 211.496 172.038 212.093C169.345 212.69 167.163 213.457 165.293 214.452C163.423 215.447 162.005 217.351 161.439 217.38C160.872 217.408 159.059 215.618 158.605 209.932C158.152 204.247 160.192 202.03 161.836 200.097C163.479 198.164 168.297 196.685 171.017 196.685C173.738 196.685 178.611 198.221 178.611 198.221C178.611 198.221 179.547 198.703 178.923 199.272C178.3 199.841 177.931 199.983 177.931 199.983Z" fill="white" fill-opacity="0.35"/>
<path fill-rule="evenodd" clip-rule="evenodd" d="M170.45 194.411C170.45 194.411 158.832 192.194 156.112 192.649C153.392 193.104 150.557 194.127 147.611 197.083C144.664 200.039 143.785 203.422 143.502 204.787C143.219 206.151 143.502 208.454 143.813 208.596C144.125 208.738 148.319 205.242 150.926 204.958C153.533 204.673 156.027 204.843 157.047 204.474C158.067 204.105 156.451 201.348 160.136 199.016C163.819 196.685 166.88 196.06 169.091 195.434C171.3 194.809 170.45 194.411 170.45 194.411Z" fill="white" fill-opacity="0.35"/>
<path fill-rule="evenodd" clip-rule="evenodd" d="M216.811 197.14C216.811 197.14 220.381 198.675 221.401 199.301C222.421 199.926 224.32 201.348 224.773 204.02C225.227 206.691 224.944 208.454 224.83 209.165C224.717 209.875 224.235 213.542 223.867 214.594C223.499 215.646 223.13 216.897 222.818 216.954C222.506 217.01 220.154 214.679 218.001 213.884C215.847 213.087 213.92 212.405 212.333 212.178C210.746 211.951 209.018 212.093 208.876 211.552C208.734 211.013 212.673 208.426 212.673 206.919C212.673 205.412 211.709 203.423 210.746 202.485C209.783 201.546 207.289 200.04 206.268 199.642C205.249 199.244 204.654 199.073 204.909 198.448C205.164 197.823 210.18 195.406 216.811 197.14Z" fill="white" fill-opacity="0.35"/>
<path fill-rule="evenodd" clip-rule="evenodd" d="M213.836 195.178C213.836 195.178 218.341 195.264 220.721 196.572C223.101 197.88 225.851 200.467 226.275 201.916C226.701 203.366 226.247 204.389 226.757 204.56C227.267 204.73 230.838 204.389 233.728 205.185C236.619 205.981 238.631 207.345 239.395 207.942C240.161 208.539 240.586 207.715 240.614 206.493C240.643 205.271 240.245 202.371 238.375 199.557C236.505 196.742 233.445 194.611 230.922 193.502C228.401 192.393 224.802 192.678 223.101 192.848C221.402 193.019 211.37 193.957 213.836 195.178Z" fill="white" fill-opacity="0.35"/>
<path fill-rule="evenodd" clip-rule="evenodd" d="M207.629 195.321C207.629 195.321 209.159 194.298 212.73 190.602C216.301 186.907 218.397 183.667 219.078 182.017C219.758 180.368 222.817 173.262 222.873 165.928C222.93 158.594 221.966 156.149 221.966 156.149C221.966 156.149 223.157 150.521 222.93 147.564C222.702 144.608 222.476 143.528 222.476 143.528C228.971 151.576 233.485 168.443 228.031 178.151C226.273 181.278 223.723 184.69 221.569 186.85C219.416 189.01 216.471 191.853 207.629 195.321Z" fill="white" fill-opacity="0.35"/>
<path fill-rule="evenodd" clip-rule="evenodd" d="M176.29 195.321C176.29 195.321 174.761 194.298 171.19 190.602C167.619 186.907 165.522 183.667 164.842 182.017C164.162 180.368 161.104 173.262 161.046 165.928C160.99 158.594 161.954 156.149 161.954 156.149C161.954 156.149 160.763 150.521 160.99 147.564C161.217 144.608 161.444 143.528 161.444 143.528C154.948 151.576 150.435 168.443 155.89 178.151C157.647 181.278 160.197 184.69 162.351 186.85C164.504 189.01 167.449 191.853 176.29 195.321Z" fill="white" fill-opacity="0.35"/>
<path fill-rule="evenodd" clip-rule="evenodd" d="M191.08 198.903C191.08 198.903 190.513 181.563 188.189 174.626C185.866 167.69 185.24 165.53 182.86 161.379C180.48 157.229 177.136 152.568 176.173 146.825C175.21 141.083 176.173 131.702 176.173 131.702L176.4 129.2C176.4 129.2 166.822 144.608 164.554 151.488C162.287 158.367 162.401 167.918 163.648 172.352C164.894 176.787 170.065 195.095 191.08 198.903Z" fill="white" fill-opacity="0.35"/>
<path fill-rule="evenodd" clip-rule="evenodd" d="M193.016 198.903C193.016 198.903 193.583 181.563 195.907 174.626C198.23 167.69 198.856 165.53 201.236 161.379C203.616 157.229 206.96 152.568 207.923 146.825C208.887 141.083 207.923 131.702 207.923 131.702L207.697 129.2C207.697 129.2 217.275 144.608 219.542 151.488C221.809 158.367 221.695 167.918 220.449 172.352C219.202 176.787 214.031 195.095 193.016 198.903Z" fill="white" fill-opacity="0.35"/>
<path fill-rule="evenodd" clip-rule="evenodd" d="M192.495 184.974C192.495 184.974 193.062 176.673 196.123 168.372C199.182 160.072 203.49 154.728 205.134 149.896C206.777 145.063 206.638 144.579 206.326 143.443C206.014 142.305 196.634 124.425 195.048 119.535C193.46 114.646 192.893 111.349 192.667 108.278C192.44 105.209 192.44 104.186 192.44 104.186C192.44 104.186 189.55 118.228 185.355 126.358C181.162 134.488 179.574 138.639 178.383 141.026C177.193 143.414 176.968 144.693 178.045 147.65C179.122 150.606 181.047 155.069 183.087 158.594C185.128 162.119 189.792 169.882 192.495 184.974Z" fill="white" fill-opacity="0.35"/>
<path fill-rule="evenodd" clip-rule="evenodd" d="M192 47.556L196.257 60.745L210.116 60.7178L198.888 68.8426L203.196 82.0145L192 73.847L180.804 82.0145L185.112 68.8426L173.885 60.7178L187.743 60.745L192 47.556Z" fill="white" fill-opacity="0.35"/>
<path d="M131.724 268.222L131.226 270.217L130.081 269.932L131.496 264.255L133.429 264.737C133.719 264.809 133.965 264.922 134.167 265.071C134.371 265.221 134.532 265.4 134.65 265.607C134.766 265.814 134.837 266.044 134.863 266.295C134.892 266.545 134.873 266.805 134.805 267.076C134.736 267.353 134.631 267.591 134.491 267.792C134.351 267.993 134.184 268.152 133.986 268.268C133.788 268.384 133.565 268.456 133.315 268.484C133.066 268.51 132.798 268.489 132.511 268.419L131.724 268.222ZM131.962 267.266L132.749 267.463C132.87 267.492 132.977 267.498 133.076 267.477C133.172 267.457 133.259 267.418 133.332 267.358C133.408 267.297 133.47 267.219 133.521 267.123C133.574 267.027 133.615 266.917 133.645 266.796C133.676 266.674 133.692 266.554 133.692 266.436C133.695 266.318 133.679 266.207 133.643 266.108C133.61 266.009 133.555 265.922 133.482 265.849C133.407 265.774 133.311 265.722 133.191 265.693L132.403 265.496L131.962 267.266ZM138.081 269.301L136.281 268.919L135.958 270.435L138.088 270.889L137.885 271.848L134.6 271.15L135.817 265.427L139.093 266.124L138.888 267.087L136.767 266.635L136.479 267.988L138.279 268.371L138.081 269.301ZM140.674 270.241L140.096 270.139L139.725 272.245L138.562 272.04L139.578 266.279L141.434 266.605C141.721 266.656 141.971 266.739 142.184 266.855C142.396 266.97 142.566 267.114 142.697 267.288C142.83 267.462 142.916 267.665 142.962 267.895C143.006 268.127 143.005 268.384 142.954 268.669C142.918 268.878 142.865 269.063 142.797 269.222C142.729 269.384 142.647 269.523 142.553 269.641C142.456 269.758 142.349 269.857 142.228 269.936C142.109 270.016 141.978 270.079 141.835 270.129L142.429 272.664L142.419 272.719L141.168 272.499L140.674 270.241ZM140.267 269.172L140.927 269.288C141.16 269.328 141.348 269.28 141.491 269.147C141.634 269.014 141.728 268.817 141.775 268.559C141.797 268.427 141.806 268.306 141.799 268.196C141.794 268.084 141.769 267.984 141.728 267.9C141.687 267.816 141.629 267.746 141.551 267.69C141.474 267.633 141.379 267.596 141.262 267.575L140.57 267.453L140.267 269.172ZM145.713 271.724C145.729 271.624 145.733 271.532 145.727 271.45C145.72 271.367 145.694 271.287 145.646 271.207C145.597 271.127 145.523 271.046 145.423 270.962C145.325 270.878 145.189 270.786 145.017 270.683C144.814 270.566 144.622 270.44 144.442 270.302C144.262 270.166 144.108 270.014 143.982 269.845C143.855 269.678 143.763 269.492 143.703 269.289C143.645 269.085 143.635 268.859 143.675 268.607C143.713 268.366 143.792 268.154 143.915 267.967C144.036 267.783 144.19 267.631 144.375 267.518C144.56 267.403 144.77 267.325 145.005 267.282C145.241 267.24 145.495 267.24 145.765 267.283C146.042 267.327 146.286 267.41 146.495 267.534C146.705 267.658 146.876 267.811 147.008 267.994C147.141 268.176 147.232 268.382 147.282 268.615C147.331 268.848 147.337 269.094 147.295 269.355L146.132 269.171C146.152 269.048 146.157 268.936 146.147 268.83C146.139 268.723 146.113 268.631 146.071 268.548C146.027 268.469 145.967 268.401 145.89 268.345C145.811 268.291 145.712 268.254 145.593 268.235C145.482 268.218 145.383 268.22 145.298 268.241C145.212 268.263 145.137 268.3 145.075 268.351C145.013 268.402 144.96 268.466 144.922 268.544C144.882 268.622 144.856 268.708 144.841 268.8C144.826 268.894 144.833 268.985 144.861 269.067C144.89 269.151 144.937 269.231 145.002 269.309C145.067 269.387 145.149 269.464 145.247 269.539C145.344 269.613 145.455 269.689 145.574 269.766C145.828 269.907 146.047 270.052 146.229 270.204C146.411 270.353 146.558 270.516 146.669 270.688C146.779 270.86 146.854 271.046 146.89 271.245C146.926 271.446 146.926 271.663 146.888 271.902C146.847 272.155 146.77 272.374 146.655 272.56C146.54 272.745 146.395 272.894 146.218 273.007C146.042 273.117 145.838 273.193 145.607 273.231C145.376 273.269 145.122 273.266 144.848 273.224C144.599 273.184 144.362 273.107 144.134 272.992C143.906 272.879 143.711 272.731 143.549 272.545C143.386 272.359 143.265 272.137 143.187 271.881C143.11 271.624 143.098 271.332 143.15 271.005L144.319 271.19C144.292 271.365 144.286 271.516 144.301 271.642C144.316 271.769 144.353 271.877 144.411 271.964C144.47 272.049 144.548 272.117 144.646 272.168C144.743 272.217 144.861 272.251 144.997 272.273C145.109 272.291 145.206 272.29 145.29 272.269C145.372 272.248 145.443 272.213 145.501 272.164C145.56 272.116 145.604 272.052 145.639 271.976C145.673 271.901 145.698 271.817 145.713 271.724ZM150.325 272.706L148.73 272.482L148.254 273.624L147.016 273.45L149.64 267.912L150.711 268.062L151.718 274.111L150.468 273.936L150.325 272.706ZM149.122 271.543L150.203 271.695L149.953 269.555L149.122 271.543ZM156.661 269.868L155.227 269.692L154.633 274.521L153.457 274.376L154.05 269.548L152.637 269.374L152.757 268.397L156.781 268.891L156.661 269.868ZM161.182 269.469L160.692 273.457C160.65 273.794 160.569 274.077 160.443 274.305C160.321 274.533 160.164 274.712 159.977 274.844C159.789 274.977 159.573 275.065 159.331 275.107C159.088 275.15 158.83 275.156 158.553 275.121C158.271 275.088 158.017 275.019 157.791 274.917C157.564 274.817 157.377 274.68 157.226 274.507C157.076 274.333 156.968 274.122 156.904 273.87C156.838 273.619 156.827 273.325 156.869 272.988L157.358 268.999L158.539 269.144L158.049 273.132C158.025 273.324 158.022 273.481 158.039 273.604C158.055 273.728 158.091 273.829 158.146 273.902C158.2 273.978 158.273 274.034 158.361 274.071C158.448 274.106 158.553 274.133 158.673 274.148C158.792 274.163 158.899 274.162 158.995 274.149C159.088 274.134 159.171 274.098 159.24 274.037C159.31 273.978 159.368 273.889 159.415 273.773C159.461 273.659 159.496 273.505 159.52 273.313L160.01 269.325L161.182 269.469ZM164.297 274.481L162.694 274.312L162.258 275.47L161.014 275.34L163.444 269.712L164.52 269.826L165.736 275.836L164.482 275.704L164.297 274.481ZM163.053 273.36L164.139 273.474L163.814 271.344L163.053 273.36ZM170.306 276.224L169.129 276.142L167.672 272.193L167.405 276.021L166.227 275.939L166.635 270.103L167.813 270.186L169.272 274.138L169.54 270.306L170.714 270.389L170.306 276.224ZM175.007 274.259L174.422 274.239L174.347 276.376L173.166 276.334L173.37 270.488L175.253 270.553C175.546 270.564 175.805 270.611 176.031 270.696C176.258 270.78 176.446 270.9 176.6 271.053C176.755 271.207 176.869 271.397 176.947 271.618C177.022 271.84 177.057 272.096 177.046 272.384C177.039 272.598 177.013 272.787 176.969 272.955C176.923 273.125 176.862 273.273 176.784 273.403C176.705 273.534 176.613 273.646 176.504 273.741C176.397 273.837 176.277 273.917 176.142 273.986L177.082 276.414L177.079 276.47L175.81 276.426L175.007 274.259ZM174.455 273.257L175.126 273.28C175.361 273.288 175.541 273.214 175.664 273.062C175.788 272.911 175.854 272.703 175.863 272.441C175.868 272.306 175.859 272.186 175.837 272.076C175.816 271.967 175.779 271.872 175.726 271.794C175.673 271.716 175.606 271.655 175.522 271.611C175.438 271.565 175.337 271.541 175.219 271.537L174.517 271.513L174.455 273.257ZM180.825 274.156L178.985 274.092L178.932 275.642L181.108 275.717L181.073 276.698L177.718 276.58L177.922 270.734L181.269 270.851L181.236 271.835L179.068 271.759L179.019 273.141L180.857 273.204L180.825 274.156ZM183.399 270.915L184.43 275.164L185.604 270.954L187.146 270.98L187.044 276.829L185.859 276.808L185.887 275.226L186.038 272.79L184.798 276.79L183.996 276.777L182.897 272.735L182.963 275.176L182.936 276.758L181.755 276.737L181.857 270.888L183.399 270.915ZM190.786 275.614H189.175L188.863 276.811H187.612L189.439 270.961H190.522L192.359 276.811H191.098L190.786 275.614ZM189.432 274.63H190.524L189.978 272.545L189.432 274.63ZM194.728 270.838L195.909 270.817L195.98 274.866C195.985 275.158 195.947 275.422 195.865 275.656C195.784 275.891 195.667 276.092 195.518 276.255C195.368 276.42 195.191 276.546 194.985 276.636C194.781 276.725 194.559 276.773 194.318 276.777C194.074 276.781 193.848 276.748 193.638 276.679C193.43 276.611 193.25 276.504 193.097 276.357C192.944 276.211 192.823 276.027 192.734 275.802C192.644 275.577 192.597 275.31 192.592 274.998L193.776 274.978C193.779 275.134 193.793 275.264 193.822 275.369C193.848 275.474 193.885 275.557 193.93 275.622C193.975 275.686 194.03 275.73 194.093 275.758C194.156 275.784 194.225 275.798 194.301 275.796C194.464 275.793 194.59 275.713 194.677 275.557C194.763 275.401 194.803 275.176 194.799 274.886L194.728 270.838ZM199.687 275.254L198.078 275.31L197.807 276.517L196.556 276.561L198.179 270.651L199.261 270.613L201.302 276.395L200.042 276.44L199.687 275.254ZM198.3 274.317L199.391 274.279L198.773 272.215L198.3 274.317ZM206.135 274.55C206.131 274.448 206.115 274.356 206.093 274.278C206.069 274.199 206.026 274.125 205.963 274.057C205.899 273.988 205.809 273.925 205.694 273.864C205.58 273.803 205.429 273.741 205.24 273.674C205.016 273.603 204.802 273.519 204.597 273.422C204.392 273.326 204.21 273.21 204.052 273.071C203.893 272.934 203.764 272.772 203.664 272.585C203.565 272.397 203.507 272.178 203.494 271.924C203.482 271.68 203.516 271.456 203.596 271.248C203.676 271.042 203.796 270.863 203.952 270.713C204.11 270.562 204.298 270.442 204.521 270.351C204.743 270.261 204.991 270.207 205.264 270.194C205.544 270.179 205.8 270.209 206.03 270.288C206.26 270.366 206.46 270.48 206.627 270.631C206.795 270.783 206.926 270.965 207.025 271.181C207.12 271.398 207.178 271.639 207.192 271.903L206.016 271.964C206.009 271.841 205.991 271.73 205.959 271.628C205.928 271.526 205.885 271.44 205.826 271.369C205.766 271.299 205.694 271.245 205.606 271.207C205.518 271.17 205.414 271.155 205.294 271.162C205.181 271.167 205.085 271.19 205.006 271.229C204.926 271.268 204.861 271.32 204.811 271.382C204.76 271.446 204.722 271.518 204.701 271.603C204.678 271.687 204.67 271.777 204.675 271.87C204.679 271.965 204.707 272.052 204.751 272.127C204.796 272.203 204.859 272.272 204.938 272.335C205.019 272.397 205.114 272.455 205.225 272.509C205.336 272.561 205.46 272.613 205.593 272.663C205.87 272.747 206.115 272.844 206.325 272.954C206.534 273.063 206.711 273.192 206.856 273.337C206.999 273.482 207.111 273.648 207.188 273.837C207.264 274.024 207.309 274.238 207.322 274.479C207.335 274.735 207.305 274.966 207.23 275.171C207.158 275.375 207.046 275.552 206.896 275.698C206.748 275.843 206.563 275.959 206.346 276.045C206.127 276.13 205.879 276.181 205.6 276.195C205.351 276.209 205.102 276.182 204.855 276.118C204.61 276.054 204.387 275.949 204.19 275.801C203.991 275.655 203.828 275.462 203.699 275.227C203.569 274.992 203.497 274.709 203.479 274.378L204.661 274.316C204.671 274.493 204.698 274.643 204.737 274.762C204.779 274.883 204.837 274.981 204.913 275.054C204.987 275.126 205.078 275.176 205.184 275.205C205.29 275.232 205.412 275.243 205.551 275.235C205.663 275.229 205.758 275.208 205.836 275.171C205.911 275.133 205.974 275.083 206.02 275.023C206.067 274.963 206.098 274.893 206.115 274.811C206.134 274.731 206.14 274.642 206.135 274.55ZM210.892 274.566L209.285 274.678L209.057 275.894L207.809 275.982L209.225 270.019L210.303 269.943L212.546 275.651L211.288 275.739L210.892 274.566ZM209.473 273.678L210.563 273.602L209.873 271.561L209.473 273.678ZM214.235 269.601L215.631 273.743L216.433 269.446L217.973 269.339L218.381 275.175L217.199 275.258L217.088 273.679L217.027 271.238L216.14 275.332L215.34 275.387L213.894 271.457L214.171 273.883L214.282 275.462L213.104 275.544L212.696 269.709L214.235 269.601ZM219.26 275.042L218.75 269.215L220.551 269.057C220.841 269.032 221.105 269.042 221.342 269.086C221.578 269.13 221.782 269.21 221.953 269.328C222.125 269.447 222.262 269.602 222.363 269.795C222.465 269.987 222.526 270.219 222.551 270.491C222.562 270.626 222.559 270.755 222.544 270.881C222.525 271.004 222.492 271.124 222.441 271.236C222.39 271.348 222.322 271.45 222.238 271.545C222.154 271.64 222.05 271.721 221.926 271.789C222.08 271.818 222.211 271.871 222.324 271.95C222.436 272.026 222.528 272.12 222.602 272.229C222.676 272.339 222.733 272.459 222.775 272.592C222.816 272.723 222.843 272.861 222.855 273.001C222.905 273.567 222.787 274.009 222.502 274.324C222.215 274.639 221.778 274.822 221.188 274.874L219.26 275.042ZM220.213 272.405L220.35 273.962L221.103 273.897C221.217 273.887 221.315 273.859 221.392 273.816C221.471 273.771 221.532 273.712 221.578 273.639C221.625 273.568 221.656 273.485 221.671 273.391C221.688 273.299 221.691 273.197 221.682 273.087C221.66 272.841 221.597 272.648 221.491 272.512C221.387 272.376 221.225 272.317 221.006 272.336L220.213 272.405ZM220.139 271.55L220.751 271.496C220.986 271.476 221.156 271.399 221.258 271.268C221.361 271.136 221.402 270.954 221.381 270.719C221.357 270.455 221.288 270.271 221.172 270.165C221.054 270.06 220.876 270.017 220.636 270.038L220.012 270.093L220.139 271.55ZM225.101 274.412L223.926 274.534L223.316 268.717L224.489 268.594L225.101 274.412ZM227.555 271.914L226.974 271.995L227.271 274.112L226.102 274.277L225.288 268.484L227.154 268.222C227.443 268.181 227.707 268.183 227.944 268.226C228.181 268.271 228.389 268.355 228.567 268.479C228.745 268.605 228.891 268.772 229.006 268.977C229.12 269.182 229.197 269.427 229.238 269.714C229.267 269.924 229.275 270.116 229.26 270.289C229.244 270.464 229.21 270.62 229.156 270.762C229.101 270.905 229.029 271.031 228.94 271.144C228.851 271.257 228.745 271.357 228.625 271.447L229.973 273.676L229.98 273.731L228.723 273.909L227.555 271.914ZM226.838 271.022L227.502 270.929C227.735 270.896 227.899 270.793 227.994 270.62C228.089 270.45 228.119 270.234 228.082 269.974C228.063 269.842 228.034 269.724 227.993 269.621C227.954 269.516 227.9 269.43 227.835 269.361C227.769 269.294 227.692 269.245 227.601 269.216C227.51 269.186 227.407 269.181 227.29 269.196L226.595 269.294L226.838 271.022ZM233.21 270.693L231.389 270.949L231.605 272.484L233.761 272.181L233.897 273.152L230.571 273.62L229.757 267.826L233.075 267.36L233.212 268.335L231.064 268.637L231.256 270.006L233.078 269.749L233.21 270.693ZM235.591 266.956L236.759 266.771L237.392 270.772C237.437 271.06 237.436 271.327 237.389 271.57C237.34 271.814 237.253 272.028 237.128 272.212C237.004 272.395 236.846 272.545 236.654 272.663C236.465 272.779 236.251 272.857 236.012 272.895C235.771 272.933 235.543 272.931 235.326 272.892C235.11 272.854 234.917 272.773 234.745 272.65C234.573 272.526 234.428 272.359 234.309 272.15C234.188 271.94 234.104 271.681 234.056 271.373L235.226 271.188C235.25 271.343 235.283 271.469 235.325 271.569C235.365 271.67 235.413 271.748 235.468 271.806C235.521 271.862 235.58 271.897 235.648 271.916C235.714 271.934 235.784 271.938 235.859 271.926C236.019 271.901 236.133 271.803 236.197 271.636C236.262 271.47 236.271 271.242 236.225 270.957L235.591 266.956ZM242.249 269.364C242.314 269.768 242.32 270.131 242.267 270.454C242.216 270.779 242.115 271.056 241.966 271.287C241.818 271.52 241.623 271.708 241.384 271.851C241.145 271.995 240.871 272.092 240.562 272.141C240.253 272.19 239.961 272.183 239.689 272.12C239.415 272.058 239.171 271.939 238.956 271.764C238.739 271.591 238.556 271.359 238.404 271.066C238.254 270.775 238.148 270.428 238.084 270.023L237.932 269.064C237.865 268.647 237.857 268.274 237.908 267.942C237.959 267.61 238.059 267.324 238.206 267.083C238.356 266.843 238.55 266.65 238.791 266.5C239.029 266.352 239.304 266.255 239.615 266.206C239.923 266.157 240.214 266.165 240.486 266.232C240.759 266.3 241.004 266.423 241.22 266.605C241.437 266.79 241.622 267.031 241.772 267.331C241.924 267.629 242.032 267.987 242.097 268.404L242.249 269.364ZM240.926 268.581C240.881 268.305 240.825 268.074 240.755 267.885C240.684 267.698 240.6 267.548 240.505 267.435C240.407 267.323 240.298 267.248 240.176 267.207C240.053 267.167 239.916 267.158 239.769 267.18C239.617 267.205 239.49 267.256 239.386 267.332C239.281 267.408 239.2 267.514 239.143 267.651C239.085 267.787 239.054 267.957 239.045 268.157C239.035 268.359 239.053 268.596 239.096 268.87L239.25 269.839C239.291 270.1 239.347 270.322 239.416 270.502C239.484 270.682 239.569 270.825 239.664 270.932C239.762 271.039 239.873 271.11 239.996 271.147C240.119 271.185 240.257 271.193 240.407 271.169C240.556 271.145 240.682 271.096 240.785 271.023C240.889 270.949 240.97 270.848 241.028 270.715C241.085 270.586 241.119 270.423 241.128 270.231C241.136 270.039 241.12 269.811 241.078 269.549L240.926 268.581ZM247.817 268.537L248.306 268.449L248.47 269.378L247.98 269.465L248.2 270.712L247.08 270.909L246.86 269.662L244.953 269.999L244.775 269.283L246.061 265.149L247.185 264.951L247.817 268.537ZM245.826 268.888L246.696 268.733L246.357 266.807L246.34 266.854L245.826 268.888ZM251.805 264.781L250.887 270.217L249.705 270.426L250.681 265.273L248.37 265.68L248.205 264.75L251.691 264.135L251.805 264.781Z" fill="white" fill-opacity="0.35"/>
<path fill-rule="evenodd" clip-rule="evenodd" d="M194.478 88.1682H189.13C188.078 88.1682 187.217 89.029 187.217 90.0812C187.217 90.6944 187.509 91.2432 187.962 91.5933C187.714 91.9199 187.361 92.1703 186.937 92.2836L186.163 92.4905C185.626 91.8319 185.303 90.9929 185.303 90.0812C185.303 87.9768 187.026 86.2551 189.13 86.2551H194.87C195.524 86.2551 196.142 86.4211 196.682 86.7132C195.806 86.9227 195.019 87.438 194.478 88.1682ZM198.433 88.6888C198.604 89.1206 198.697 89.5905 198.697 90.0812C198.697 92.1857 196.976 93.9082 194.87 93.9082H189.13C188.829 93.9082 188.535 93.8729 188.253 93.8057C189.007 93.3994 189.59 92.7544 189.931 91.9952H194.87C195.923 91.9952 196.784 91.1335 196.784 90.0812C196.784 89.6467 196.637 89.2458 196.391 88.9229C196.848 88.5709 197.458 88.4276 198.055 88.5873L198.433 88.6888Z" fill="white" fill-opacity="0.35"/>
<path fill-rule="evenodd" clip-rule="evenodd" d="M185.83 88.3614L180.511 88.9211C179.464 89.0308 178.699 89.9769 178.808 91.0237C178.872 91.6333 179.22 92.1476 179.706 92.4496C179.494 92.7998 179.169 93.0855 178.759 93.2433L178.012 93.53C177.41 92.9304 177.001 92.1294 176.905 91.2233C176.685 89.1306 178.218 87.2375 180.311 87.018L186.02 86.4175C186.67 86.3495 187.302 86.4502 187.869 86.6851C187.019 86.9844 186.291 87.5786 185.83 88.3614ZM189.818 88.4657C190.032 88.8775 190.174 89.3356 190.226 89.8236C190.445 91.9163 188.913 93.8094 186.82 94.0289L181.112 94.6294C180.811 94.6611 180.516 94.6566 180.228 94.6194C180.936 94.1359 181.448 93.4329 181.707 92.6429L186.619 92.1267C187.666 92.0161 188.433 91.07 188.323 90.0232C188.278 89.5914 188.09 89.2077 187.81 88.9129C188.229 88.5147 188.82 88.3079 189.43 88.4049L189.818 88.4657Z" fill="white" fill-opacity="0.35"/>
<path fill-rule="evenodd" clip-rule="evenodd" d="M177.249 89.4581L172.018 90.5701C170.988 90.7888 170.325 91.8101 170.544 92.8397C170.672 93.4393 171.072 93.9146 171.587 94.164C171.412 94.5341 171.119 94.8525 170.728 95.0521L170.014 95.4149C169.352 94.8825 168.862 94.1287 168.672 93.237C168.235 91.1788 169.561 89.136 171.62 88.6988L177.235 87.5051C177.874 87.369 178.513 87.4035 179.101 87.5777C178.288 87.9641 177.625 88.6317 177.249 89.4581ZM181.226 89.1451C181.482 89.5324 181.671 89.9724 181.774 90.4522C182.211 92.5113 180.885 94.5541 178.826 94.9913L173.212 96.185C172.916 96.2476 172.621 96.2739 172.332 96.2667C172.985 95.7124 173.421 94.9605 173.596 94.1468L178.428 93.12C179.458 92.9005 180.121 91.88 179.901 90.8504C179.812 90.425 179.585 90.0631 179.276 89.7991C179.65 89.3601 180.217 89.0925 180.834 89.1243L181.226 89.1451Z" fill="white" fill-opacity="0.35"/>
<path fill-rule="evenodd" clip-rule="evenodd" d="M168.83 91.4455L163.743 93.0982C162.743 93.4229 162.19 94.5078 162.515 95.5093C162.705 96.0925 163.152 96.5234 163.691 96.7175C163.556 97.1039 163.297 97.4513 162.929 97.6899L162.258 98.1262C161.543 97.6654 160.977 96.9669 160.696 96.1007C160.045 94.0987 161.15 91.929 163.152 91.2786L168.611 89.5043C169.233 89.302 169.872 89.2703 170.476 89.381C169.707 89.8517 169.118 90.5838 168.83 91.4455ZM172.752 90.7189C173.047 91.0772 173.282 91.4945 173.433 91.9616C174.083 93.9636 172.979 96.1333 170.977 96.7837L165.517 98.5571C165.23 98.6505 164.94 98.7076 164.651 98.7312C165.243 98.1117 165.598 97.3171 165.687 96.4898L170.385 94.9641C171.386 94.6385 171.939 93.5536 171.613 92.5531C171.479 92.1394 171.216 91.8029 170.882 91.5725C171.208 91.0972 171.743 90.7715 172.361 90.7389L172.752 90.7189Z" fill="white" fill-opacity="0.35"/>
<path fill-rule="evenodd" clip-rule="evenodd" d="M160.665 94.3019L155.778 96.4771C154.818 96.9053 154.38 98.0418 154.809 99.0034C155.058 99.5639 155.549 99.9458 156.104 100.082C156.01 100.481 155.79 100.853 155.448 101.13L154.826 101.633C154.067 101.249 153.432 100.614 153.061 99.7816C152.205 97.8586 153.078 95.5854 155 94.7292L160.244 92.3943C160.842 92.1285 161.473 92.0297 162.085 92.0768C161.37 92.6247 160.861 93.4148 160.665 94.3019ZM164.489 93.169C164.82 93.4946 165.097 93.8856 165.296 94.3337C166.153 96.2567 165.28 98.5308 163.357 99.3862L158.113 101.721C157.837 101.843 157.555 101.931 157.27 101.985C157.794 101.306 158.064 100.48 158.066 99.6474L162.579 97.6382C163.54 97.21 163.977 96.0735 163.548 95.112C163.372 94.7156 163.075 94.4081 162.718 94.2139C162.993 93.7069 163.491 93.3268 164.102 93.2307L164.489 93.169Z" fill="white" fill-opacity="0.35"/>
<path fill-rule="evenodd" clip-rule="evenodd" d="M152.842 97.9965L148.21 100.671C147.3 101.197 146.984 102.373 147.51 103.284C147.817 103.815 148.345 104.144 148.912 104.222C148.86 104.628 148.679 105.021 148.368 105.331L147.802 105.898C147.008 105.595 146.309 105.03 145.853 104.241C144.801 102.419 145.431 100.066 147.254 99.0133L152.225 96.1433C152.791 95.8168 153.409 95.6517 154.023 95.6353C153.369 96.2549 152.945 97.0939 152.842 97.9965ZM156.527 96.4699C156.891 96.7592 157.207 97.1193 157.453 97.5439C158.505 99.3671 157.875 101.719 156.052 102.771L151.08 105.641C150.819 105.793 150.547 105.909 150.269 105.992C150.719 105.262 150.902 104.412 150.817 103.584L155.095 101.114C156.007 100.588 156.322 99.4125 155.795 98.5008C155.579 98.1244 155.25 97.8505 154.876 97.6944C155.096 97.1611 155.552 96.7311 156.149 96.5715L156.527 96.4699Z" fill="white" fill-opacity="0.35"/>
<path fill-rule="evenodd" clip-rule="evenodd" d="M145.449 102.488L141.122 105.631C140.272 106.25 140.081 107.453 140.699 108.305C141.06 108.801 141.619 109.072 142.19 109.09C142.182 109.5 142.043 109.909 141.766 110.251L141.263 110.873C140.441 110.656 139.686 110.166 139.151 109.429C137.914 107.726 138.295 105.321 139.998 104.084L144.642 100.71C145.171 100.326 145.768 100.097 146.377 100.017C145.791 100.701 145.457 101.579 145.449 102.488ZM148.955 100.585C149.346 100.835 149.698 101.16 149.986 101.557C151.224 103.259 150.843 105.665 149.14 106.901L144.497 110.276C144.253 110.453 143.993 110.597 143.727 110.708C144.098 109.937 144.19 109.072 144.02 108.257L148.015 105.354C148.867 104.735 149.058 103.532 148.439 102.682C148.183 102.33 147.829 102.091 147.44 101.975C147.604 101.422 148.012 100.947 148.589 100.725L148.955 100.585Z" fill="white" fill-opacity="0.35"/>
<path fill-rule="evenodd" clip-rule="evenodd" d="M138.566 107.729L134.591 111.307C133.81 112.011 133.746 113.227 134.45 114.009C134.861 114.465 135.445 114.677 136.016 114.634C136.05 115.043 135.955 115.465 135.715 115.833L135.279 116.505C134.439 116.374 133.638 115.967 133.029 115.289C131.62 113.725 131.748 111.294 133.312 109.885L137.578 106.044C138.064 105.606 138.633 105.318 139.23 105.173C138.719 105.915 138.479 106.824 138.566 107.729ZM141.854 105.469C142.269 105.676 142.654 105.963 142.982 106.327C144.39 107.891 144.263 110.324 142.698 111.732L138.433 115.572C138.209 115.775 137.967 115.945 137.712 116.084C138 115.277 138.002 114.408 137.747 113.615L141.418 110.31C142.2 109.605 142.264 108.39 141.56 107.608C141.269 107.285 140.891 107.085 140.493 107.01C140.597 106.442 140.954 105.927 141.504 105.647L141.854 105.469Z" fill="white" fill-opacity="0.35"/>
<path fill-rule="evenodd" clip-rule="evenodd" d="M132.268 113.659L128.69 117.633C127.986 118.416 128.05 119.631 128.831 120.335C129.288 120.746 129.89 120.896 130.453 120.794C130.53 121.197 130.48 121.626 130.281 122.018L129.917 122.731C129.068 122.689 128.228 122.367 127.552 121.758C125.988 120.349 125.86 117.917 127.269 116.353L131.109 112.087C131.546 111.601 132.083 111.255 132.662 111.049C132.231 111.84 132.088 112.768 132.268 113.659ZM135.302 111.069C135.737 111.231 136.149 111.476 136.514 111.804C138.077 113.213 138.205 115.645 136.797 117.209L132.956 121.475C132.754 121.699 132.531 121.893 132.293 122.058C132.495 121.225 132.405 120.361 132.07 119.6L135.375 115.929C136.079 115.146 136.016 113.93 135.233 113.227C134.911 112.935 134.513 112.776 134.11 112.743C134.154 112.168 134.455 111.618 134.973 111.282L135.302 111.069Z" fill="white" fill-opacity="0.35"/>
<path fill-rule="evenodd" clip-rule="evenodd" d="M126.625 120.216L123.482 124.542C122.864 125.394 123.054 126.596 123.905 127.215C124.401 127.576 125.017 127.661 125.566 127.501C125.685 127.894 125.679 128.326 125.522 128.736L125.235 129.483C124.387 129.531 123.518 129.298 122.78 128.763C121.077 127.526 120.697 125.12 121.934 123.418L125.308 118.774C125.692 118.245 126.19 117.844 126.744 117.579C126.398 118.411 126.352 119.349 126.625 120.216ZM129.371 117.322C129.821 117.438 130.256 117.639 130.653 117.927C132.355 119.164 132.736 121.57 131.5 123.273L128.126 127.916C127.949 128.161 127.747 128.378 127.527 128.566C127.641 127.717 127.462 126.866 127.048 126.144L129.952 122.148C130.57 121.297 130.38 120.094 129.528 119.475C129.177 119.22 128.766 119.103 128.361 119.113C128.344 118.536 128.586 117.958 129.066 117.569L129.371 117.322Z" fill="white" fill-opacity="0.35"/>
<path fill-rule="evenodd" clip-rule="evenodd" d="M121.699 127.326L119.025 131.958C118.499 132.87 118.813 134.045 119.725 134.571C120.256 134.878 120.877 134.899 121.407 134.683C121.566 135.06 121.605 135.491 121.492 135.916L121.284 136.688C120.445 136.824 119.557 136.684 118.768 136.229C116.946 135.176 116.315 132.824 117.368 131.001L120.238 126.03C120.564 125.463 121.018 125.012 121.54 124.691C121.283 125.555 121.336 126.493 121.699 127.326ZM124.127 124.161C124.586 124.23 125.04 124.384 125.465 124.63C127.287 125.682 127.918 128.034 126.866 129.857L123.996 134.828C123.845 135.089 123.667 135.326 123.468 135.536C123.493 134.68 123.226 133.853 122.738 133.178L125.208 128.9C125.735 127.989 125.42 126.813 124.508 126.287C124.132 126.069 123.711 125.996 123.309 126.047C123.233 125.476 123.412 124.875 123.85 124.439L124.127 124.161Z" fill="white" fill-opacity="0.35"/>
<path fill-rule="evenodd" clip-rule="evenodd" d="M117.542 134.912L115.366 139.799C114.938 140.76 115.375 141.897 116.336 142.325C116.897 142.574 117.516 142.53 118.021 142.26C118.218 142.619 118.303 143.043 118.234 143.477L118.109 144.267C117.289 144.489 116.391 144.443 115.558 144.073C113.635 143.217 112.762 140.943 113.619 139.021L115.953 133.777C116.219 133.179 116.623 132.683 117.109 132.308C116.944 133.194 117.094 134.122 117.542 134.912ZM119.626 131.512C120.09 131.532 120.558 131.638 121.006 131.837C122.928 132.693 123.802 134.967 122.945 136.89L120.61 142.134C120.488 142.409 120.336 142.662 120.16 142.893C120.095 142.039 119.743 141.244 119.188 140.624L121.197 136.111C121.625 135.15 121.189 134.013 120.228 133.585C119.83 133.408 119.404 133.379 119.009 133.473C118.874 132.912 118.99 132.296 119.379 131.816L119.626 131.512Z" fill="white" fill-opacity="0.35"/>
<path fill-rule="evenodd" clip-rule="evenodd" d="M114.201 142.892L112.548 147.979C112.223 148.979 112.776 150.064 113.776 150.39C114.36 150.58 114.972 150.471 115.445 150.149C115.679 150.485 115.807 150.898 115.785 151.337L115.743 152.136C114.95 152.444 114.052 152.491 113.186 152.21C111.184 151.559 110.078 149.389 110.729 147.388L112.503 141.929C112.704 141.306 113.053 140.77 113.499 140.348C113.427 141.246 113.673 142.153 114.201 142.892ZM115.918 139.292C116.382 139.264 116.858 139.32 117.324 139.471C119.326 140.122 120.432 142.291 119.781 144.293L118.007 149.752C117.914 150.04 117.789 150.307 117.639 150.555C117.485 149.712 117.052 148.959 116.435 148.4L117.962 143.702C118.286 142.701 117.734 141.617 116.733 141.291C116.32 141.157 115.893 141.172 115.51 141.307C115.317 140.764 115.368 140.139 115.705 139.621L115.918 139.292Z" fill="white" fill-opacity="0.35"/>
<path fill-rule="evenodd" clip-rule="evenodd" d="M111.713 151.177L110.601 156.409C110.382 157.438 111.045 158.459 112.075 158.678C112.674 158.805 113.271 158.634 113.708 158.264C113.976 158.575 114.147 158.972 114.17 159.41L114.212 160.209C113.456 160.597 112.567 160.739 111.677 160.549C109.617 160.112 108.291 158.069 108.729 156.01L109.922 150.396C110.058 149.756 110.35 149.187 110.748 148.72C110.77 149.621 111.111 150.497 111.713 151.177ZM113.044 147.417C113.503 147.34 113.981 147.347 114.461 147.448C116.52 147.886 117.847 149.928 117.408 151.987L116.216 157.602C116.153 157.897 116.057 158.177 115.933 158.44C115.692 157.617 115.182 156.912 114.51 156.421L115.537 151.589C115.756 150.561 115.093 149.539 114.063 149.321C113.639 149.23 113.215 149.29 112.849 149.464C112.6 148.943 112.585 148.317 112.866 147.767L113.044 147.417Z" fill="white" fill-opacity="0.35"/>
<path fill-rule="evenodd" clip-rule="evenodd" d="M110.104 159.677L109.545 164.996C109.435 166.043 110.201 166.989 111.247 167.099C111.857 167.163 112.433 166.929 112.829 166.516C113.128 166.797 113.339 167.174 113.408 167.608L113.533 168.398C112.822 168.864 111.953 169.097 111.048 169.002C108.954 168.782 107.421 166.889 107.642 164.795L108.241 159.087C108.31 158.437 108.54 157.84 108.887 157.334C109.004 158.227 109.434 159.064 110.104 159.677ZM111.035 155.798C111.482 155.674 111.959 155.63 112.447 155.681C114.541 155.901 116.073 157.794 115.854 159.887L115.253 165.596C115.221 165.896 115.156 166.184 115.06 166.458C114.734 165.665 114.154 165.018 113.434 164.6L113.95 159.688C114.06 158.641 113.294 157.695 112.248 157.584C111.815 157.539 111.401 157.643 111.054 157.854C110.752 157.363 110.673 156.741 110.895 156.165L111.035 155.798Z" fill="white" fill-opacity="0.35"/>
<path fill-rule="evenodd" clip-rule="evenodd" d="M109.392 168.299V173.647C109.392 174.699 110.253 175.56 111.306 175.56C111.919 175.56 112.467 175.268 112.818 174.815C113.144 175.063 113.394 175.417 113.508 175.84L113.715 176.614C113.056 177.15 112.216 177.473 111.306 177.473C109.201 177.473 107.479 175.751 107.479 173.647V167.907C107.479 167.252 107.645 166.635 107.938 166.095C108.147 166.972 108.661 167.758 109.392 168.299ZM109.913 164.344C110.345 164.173 110.815 164.08 111.306 164.08C113.41 164.08 115.133 165.801 115.133 167.907V173.647C115.133 173.948 115.096 174.242 115.03 174.524C114.624 173.77 113.978 173.187 113.219 172.846V167.907C113.219 166.854 112.358 165.993 111.306 165.993C110.871 165.993 110.469 166.14 110.147 166.387C109.795 165.929 109.651 165.319 109.812 164.722L109.913 164.344Z" fill="white" fill-opacity="0.35"/>
<path fill-rule="evenodd" clip-rule="evenodd" d="M109.586 176.947L110.144 182.266C110.255 183.312 111.201 184.078 112.248 183.969C112.857 183.904 113.372 183.557 113.674 183.07C114.024 183.282 114.31 183.608 114.467 184.018L114.754 184.765C114.155 185.367 113.354 185.776 112.447 185.872C110.354 186.091 108.462 184.559 108.241 182.466L107.642 176.757C107.574 176.107 107.674 175.476 107.908 174.908C108.209 175.758 108.803 176.486 109.586 176.947ZM109.69 172.959C110.102 172.745 110.56 172.603 111.048 172.551C113.14 172.332 115.034 173.864 115.253 175.957L115.854 181.666C115.884 181.966 115.88 182.261 115.844 182.549C115.36 181.841 114.657 181.329 113.867 181.07L113.35 176.157C113.24 175.111 112.294 174.344 111.247 174.454C110.816 174.499 110.431 174.687 110.137 174.966C109.739 174.548 109.532 173.957 109.628 173.347L109.69 172.959Z" fill="white" fill-opacity="0.35"/>
<path fill-rule="evenodd" clip-rule="evenodd" d="M110.682 185.528L111.794 190.759C112.013 191.789 113.034 192.452 114.063 192.233C114.663 192.105 115.139 191.705 115.387 191.19C115.758 191.365 116.077 191.658 116.275 192.049L116.639 192.763C116.106 193.425 115.352 193.915 114.461 194.104C112.402 194.542 110.36 193.216 109.922 191.157L108.729 185.542C108.593 184.902 108.628 184.264 108.801 183.675C109.188 184.489 109.855 185.151 110.682 185.528ZM110.369 181.551C110.757 181.295 111.197 181.106 111.676 181.003C113.736 180.566 115.777 181.892 116.216 183.951L117.408 189.565C117.471 189.861 117.497 190.156 117.491 190.445C116.937 189.792 116.184 189.356 115.371 189.181L114.343 184.349C114.125 183.319 113.103 182.656 112.075 182.875C111.649 182.965 111.287 183.192 111.023 183.501C110.584 183.127 110.316 182.56 110.348 181.942L110.369 181.551Z" fill="white" fill-opacity="0.35"/>
<path fill-rule="evenodd" clip-rule="evenodd" d="M112.67 193.947L114.323 199.034C114.647 200.034 115.732 200.587 116.734 200.262C117.316 200.072 117.748 199.625 117.941 199.086C118.328 199.221 118.675 199.48 118.914 199.848L119.351 200.519C118.89 201.233 118.191 201.8 117.324 202.081C115.323 202.732 113.153 201.626 112.503 199.625L110.729 194.165C110.526 193.544 110.494 192.905 110.605 192.301C111.075 193.07 111.808 193.659 112.67 193.947ZM111.942 190.025C112.301 189.73 112.719 189.496 113.186 189.344C115.187 188.693 117.357 189.798 118.007 191.8L119.781 197.259C119.875 197.547 119.932 197.837 119.956 198.126C119.335 197.534 118.541 197.179 117.714 197.09L116.188 192.392C115.863 191.391 114.778 190.838 113.777 191.164C113.364 191.298 113.027 191.561 112.797 191.895C112.321 191.569 111.996 191.034 111.963 190.416L111.942 190.025Z" fill="white" fill-opacity="0.35"/>
<path fill-rule="evenodd" clip-rule="evenodd" d="M115.526 202.112L117.701 206.999C118.13 207.959 119.266 208.396 120.228 207.968C120.787 207.719 121.169 207.228 121.306 206.673C121.705 206.766 122.077 206.987 122.353 207.329L122.857 207.95C122.474 208.709 121.838 209.345 121.006 209.716C119.083 210.572 116.81 209.699 115.953 207.776L113.619 202.532C113.353 201.935 113.254 201.304 113.301 200.692C113.849 201.406 114.639 201.915 115.526 202.112ZM114.393 198.288C114.719 197.957 115.11 197.68 115.558 197.481C117.481 196.624 119.754 197.497 120.61 199.42L122.945 204.664C123.068 204.94 123.155 205.222 123.208 205.507C122.531 204.983 121.704 204.713 120.872 204.711L118.862 200.198C118.434 199.237 117.298 198.8 116.336 199.229C115.94 199.405 115.632 199.702 115.438 200.059C114.931 199.784 114.551 199.286 114.454 198.675L114.393 198.288Z" fill="white" fill-opacity="0.35"/>
<path fill-rule="evenodd" clip-rule="evenodd" d="M119.221 209.935L121.895 214.567C122.421 215.477 123.597 215.793 124.508 215.267C125.04 214.96 125.368 214.432 125.445 213.865C125.852 213.917 126.245 214.098 126.555 214.409L127.122 214.975C126.819 215.768 126.254 216.468 125.465 216.923C123.642 217.976 121.29 217.346 120.238 215.523L117.368 210.552C117.04 209.986 116.876 209.368 116.86 208.754C117.479 209.408 118.317 209.832 119.221 209.935ZM117.694 206.249C117.983 205.886 118.344 205.57 118.768 205.324C120.59 204.272 122.943 204.902 123.996 206.725L126.866 211.697C127.016 211.958 127.132 212.23 127.216 212.507C126.487 212.058 125.636 211.875 124.808 211.96L122.338 207.682C121.812 206.77 120.636 206.455 119.725 206.981C119.349 207.198 119.074 207.527 118.919 207.901C118.385 207.681 117.955 207.225 117.796 206.628L117.694 206.249Z" fill="white" fill-opacity="0.35"/>
<path fill-rule="evenodd" clip-rule="evenodd" d="M123.713 217.328L126.856 221.655C127.474 222.505 128.677 222.696 129.528 222.077C130.024 221.717 130.296 221.158 130.315 220.587C130.724 220.595 131.134 220.734 131.475 221.011L132.097 221.514C131.879 222.336 131.39 223.09 130.653 223.626C128.95 224.863 126.545 224.482 125.308 222.779L121.934 218.135C121.549 217.606 121.322 217.009 121.241 216.4C121.925 216.986 122.804 217.32 123.713 217.328ZM121.809 213.822C122.058 213.43 122.384 213.078 122.78 212.79C124.484 211.553 126.889 211.934 128.126 213.637L131.5 218.28C131.677 218.524 131.821 218.783 131.933 219.05C131.161 218.679 130.296 218.587 129.482 218.757L126.578 214.762C125.96 213.91 124.757 213.719 123.905 214.338C123.554 214.593 123.315 214.948 123.199 215.337C122.646 215.173 122.171 214.765 121.949 214.188L121.809 213.822Z" fill="white" fill-opacity="0.35"/>
<path fill-rule="evenodd" clip-rule="evenodd" d="M128.952 224.211L132.53 228.186C133.235 228.968 134.451 229.031 135.233 228.327C135.689 227.916 135.9 227.332 135.859 226.761C136.267 226.727 136.689 226.822 137.058 227.062L137.729 227.498C137.598 228.337 137.19 229.139 136.513 229.749C134.95 231.157 132.517 231.029 131.109 229.466L127.268 225.199C126.83 224.713 126.541 224.144 126.397 223.547C127.14 224.057 128.048 224.298 128.952 224.211ZM126.693 220.923C126.9 220.508 127.187 220.123 127.551 219.795C129.115 218.387 131.547 218.514 132.956 220.079L136.797 224.344C136.999 224.568 137.168 224.81 137.308 225.065C136.501 224.777 135.631 224.775 134.839 225.03L131.534 221.359C130.83 220.577 129.613 220.513 128.831 221.217C128.508 221.508 128.309 221.886 128.234 222.284C127.667 222.18 127.151 221.823 126.871 221.273L126.693 220.923Z" fill="white" fill-opacity="0.35"/>
<path fill-rule="evenodd" clip-rule="evenodd" d="M134.884 230.509L138.858 234.087C139.639 234.791 140.856 234.728 141.56 233.946C141.97 233.489 142.119 232.886 142.019 232.324C142.421 232.247 142.851 232.297 143.241 232.496L143.955 232.86C143.913 233.709 143.592 234.549 142.982 235.226C141.573 236.789 139.141 236.917 137.578 235.509L133.312 231.668C132.825 231.231 132.478 230.694 132.273 230.115C133.064 230.546 133.993 230.689 134.884 230.509ZM132.293 227.475C132.455 227.04 132.7 226.628 133.029 226.263C134.436 224.7 136.868 224.572 138.433 225.98L142.698 229.821C142.923 230.023 143.117 230.247 143.282 230.484C142.45 230.282 141.584 230.371 140.823 230.707L137.152 227.402C136.37 226.698 135.155 226.761 134.45 227.543C134.16 227.866 134 228.264 133.967 228.667C133.392 228.623 132.843 228.323 132.506 227.804L132.293 227.475Z" fill="white" fill-opacity="0.35"/>
<path fill-rule="evenodd" clip-rule="evenodd" d="M141.44 236.152L145.767 239.295C146.618 239.913 147.82 239.723 148.439 238.872C148.799 238.376 148.885 237.76 148.726 237.211C149.118 237.092 149.55 237.098 149.96 237.255L150.708 237.542C150.755 238.39 150.523 239.259 149.987 239.997C148.75 241.699 146.345 242.08 144.642 240.843L139.998 237.469C139.469 237.084 139.067 236.587 138.802 236.033C139.635 236.379 140.573 236.425 141.44 236.152ZM138.546 233.406C138.662 232.956 138.863 232.521 139.151 232.124C140.389 230.422 142.793 230.04 144.497 231.277L149.14 234.651C149.384 234.828 149.601 235.03 149.79 235.25C148.941 235.136 148.09 235.314 147.368 235.729L143.372 232.825C142.52 232.207 141.318 232.397 140.699 233.248C140.444 233.6 140.327 234.011 140.337 234.416C139.76 234.433 139.182 234.191 138.793 233.711L138.546 233.406Z" fill="white" fill-opacity="0.35"/>
<path fill-rule="evenodd" clip-rule="evenodd" d="M148.55 241.078L153.182 243.752C154.093 244.278 155.269 243.964 155.796 243.052C156.102 242.521 156.123 241.9 155.907 241.37C156.284 241.211 156.715 241.172 157.14 241.285L157.913 241.493C158.048 242.332 157.908 243.22 157.453 244.009C156.401 245.831 154.048 246.462 152.225 245.409L147.254 242.539C146.687 242.213 146.237 241.759 145.915 241.237C146.779 241.494 147.717 241.441 148.55 241.078ZM145.386 238.65C145.454 238.191 145.608 237.737 145.853 237.312C146.906 235.489 149.258 234.859 151.08 235.911L156.052 238.781C156.313 238.932 156.55 239.11 156.761 239.309C155.904 239.284 155.076 239.551 154.402 240.039L150.124 237.569C149.213 237.042 148.036 237.357 147.51 238.269C147.293 238.645 147.22 239.066 147.272 239.468C146.7 239.544 146.1 239.365 145.662 238.927L145.386 238.65Z" fill="white" fill-opacity="0.35"/>
<path fill-rule="evenodd" clip-rule="evenodd" d="M156.137 245.235L161.022 247.41C161.984 247.839 163.12 247.402 163.548 246.441C163.798 245.88 163.754 245.261 163.483 244.756C163.842 244.559 164.267 244.474 164.7 244.543L165.491 244.668C165.714 245.488 165.667 246.386 165.296 247.219C164.441 249.142 162.167 250.015 160.244 249.158L155 246.824C154.403 246.558 153.907 246.154 153.532 245.668C154.418 245.833 155.346 245.682 156.137 245.235ZM152.736 243.151C152.756 242.687 152.861 242.219 153.061 241.771C153.917 239.849 156.191 238.975 158.113 239.832L163.357 242.167C163.633 242.289 163.887 242.441 164.117 242.617C163.263 242.682 162.468 243.034 161.848 243.589L157.335 241.58C156.373 241.152 155.237 241.588 154.809 242.549C154.633 242.947 154.603 243.373 154.697 243.768C154.136 243.903 153.52 243.787 153.04 243.397L152.736 243.151Z" fill="white" fill-opacity="0.35"/>
<path fill-rule="evenodd" clip-rule="evenodd" d="M164.116 248.576L169.202 250.229C170.204 250.554 171.289 250.001 171.613 249.001C171.803 248.417 171.694 247.805 171.373 247.332C171.71 247.098 172.122 246.97 172.561 246.992L173.36 247.034C173.667 247.827 173.715 248.725 173.433 249.591C172.783 251.593 170.613 252.699 168.611 252.048L163.152 250.274C162.53 250.073 161.995 249.724 161.571 249.278C162.47 249.35 163.376 249.104 164.116 248.576ZM160.516 246.859C160.488 246.395 160.543 245.919 160.696 245.453C161.346 243.451 163.516 242.345 165.517 242.996L170.977 244.769C171.263 244.862 171.532 244.988 171.779 245.138C170.937 245.291 170.182 245.725 169.624 246.342L164.926 244.815C163.925 244.491 162.84 245.043 162.515 246.043C162.381 246.457 162.396 246.884 162.531 247.267C161.987 247.46 161.363 247.409 160.844 247.072L160.516 246.859Z" fill="white" fill-opacity="0.35"/>
<path fill-rule="evenodd" clip-rule="evenodd" d="M172.402 251.064L177.633 252.176C178.661 252.395 179.683 251.732 179.901 250.702C180.029 250.103 179.857 249.506 179.488 249.069C179.798 248.801 180.195 248.63 180.634 248.607L181.433 248.565C181.822 249.321 181.963 250.21 181.774 251.1C181.335 253.16 179.294 254.486 177.234 254.048L171.62 252.855C170.98 252.719 170.411 252.428 169.943 252.029C170.845 252.007 171.72 251.667 172.402 251.064ZM168.641 249.733C168.565 249.275 168.57 248.796 168.672 248.316C169.11 246.258 171.152 244.93 173.212 245.369L178.826 246.561C179.121 246.624 179.401 246.72 179.663 246.844C178.841 247.085 178.136 247.595 177.645 248.267L172.813 247.24C171.784 247.021 170.762 247.684 170.544 248.714C170.454 249.138 170.514 249.562 170.688 249.929C170.167 250.177 169.541 250.192 168.99 249.911L168.641 249.733Z" fill="white" fill-opacity="0.35"/>
<path fill-rule="evenodd" clip-rule="evenodd" d="M180.901 252.673L186.22 253.232C187.266 253.342 188.213 252.576 188.323 251.53C188.386 250.92 188.153 250.344 187.74 249.948C188.021 249.649 188.398 249.438 188.832 249.369L189.623 249.244C190.087 249.955 190.321 250.824 190.226 251.729C190.005 253.823 188.113 255.356 186.02 255.135L180.311 254.536C179.66 254.467 179.064 254.237 178.558 253.89C179.451 253.773 180.287 253.343 180.901 252.673ZM177.022 251.742C176.898 251.295 176.854 250.817 176.905 250.329C177.126 248.236 179.018 246.704 181.111 246.923L186.82 247.524C187.12 247.556 187.408 247.621 187.681 247.717C186.89 248.043 186.242 248.623 185.824 249.343L180.911 248.826C179.864 248.717 178.918 249.483 178.808 250.529C178.763 250.962 178.866 251.376 179.078 251.723C178.587 252.025 177.965 252.104 177.388 251.882L177.022 251.742Z" fill="white" fill-opacity="0.35"/>
<path fill-rule="evenodd" clip-rule="evenodd" d="M189.522 253.385H194.87C195.923 253.385 196.784 252.524 196.784 251.471C196.784 250.858 196.491 250.31 196.04 249.959C196.287 249.633 196.64 249.383 197.065 249.269L197.837 249.062C198.374 249.721 198.697 250.561 198.697 251.471C198.697 253.576 196.976 255.298 194.87 255.298H189.13C188.476 255.298 187.859 255.132 187.319 254.84C188.196 254.63 188.981 254.115 189.522 253.385ZM185.567 252.864C185.398 252.432 185.303 251.962 185.303 251.471C185.303 249.367 187.026 247.644 189.13 247.644H194.87C195.172 247.644 195.466 247.68 195.748 247.747C194.994 248.153 194.41 248.799 194.07 249.558H189.13C188.078 249.558 187.217 250.419 187.217 251.471C187.217 251.906 187.364 252.308 187.61 252.63C187.153 252.982 186.543 253.126 185.946 252.965L185.567 252.864Z" fill="white" fill-opacity="0.35"/>
<path fill-rule="evenodd" clip-rule="evenodd" d="M198.171 253.191L203.49 252.633C204.536 252.522 205.303 251.576 205.193 250.529C205.129 249.919 204.78 249.405 204.294 249.103C204.506 248.753 204.831 248.467 205.241 248.31L205.989 248.023C206.592 248.622 207 249.423 207.095 250.329C207.316 252.423 205.783 254.315 203.69 254.536L197.981 255.135C197.33 255.203 196.699 255.103 196.132 254.869C196.981 254.568 197.71 253.974 198.171 253.191ZM194.184 253.087C193.969 252.675 193.826 252.217 193.775 251.729C193.555 249.636 195.088 247.743 197.181 247.524L202.89 246.923C203.19 246.892 203.486 246.897 203.773 246.933C203.066 247.417 202.553 248.12 202.294 248.91L197.381 249.427C196.334 249.537 195.568 250.483 195.679 251.53C195.724 251.961 195.912 252.346 196.19 252.64C195.772 253.038 195.181 253.245 194.57 253.148L194.184 253.087Z" fill="white" fill-opacity="0.35"/>
<path fill-rule="evenodd" clip-rule="evenodd" d="M206.751 252.095L211.983 250.983C213.012 250.764 213.675 249.743 213.457 248.714C213.33 248.113 212.93 247.638 212.414 247.39C212.589 247.019 212.882 246.7 213.273 246.502L213.986 246.138C214.649 246.671 215.139 247.425 215.328 248.316C215.766 250.375 214.44 252.417 212.381 252.855L206.766 254.048C206.126 254.184 205.488 254.149 204.899 253.976C205.713 253.589 206.375 252.922 206.751 252.095ZM202.775 252.408C202.519 252.02 202.329 251.58 202.228 251.1C201.79 249.041 203.116 247 205.175 246.561L210.79 245.369C211.085 245.305 211.379 245.279 211.67 245.286C211.017 245.84 210.579 246.593 210.404 247.406L205.573 248.434C204.544 248.652 203.88 249.674 204.099 250.702C204.189 251.128 204.417 251.49 204.724 251.754C204.35 252.193 203.783 252.461 203.167 252.428L202.775 252.408Z" fill="white" fill-opacity="0.35"/>
<path fill-rule="evenodd" clip-rule="evenodd" d="M215.171 250.107L220.257 248.455C221.258 248.13 221.811 247.045 221.486 246.043C221.296 245.46 220.848 245.029 220.31 244.836C220.445 244.449 220.703 244.102 221.072 243.863L221.744 243.427C222.458 243.887 223.024 244.586 223.306 245.453C223.956 247.454 222.85 249.624 220.848 250.274L215.389 252.048C214.767 252.251 214.129 252.282 213.525 252.172C214.294 251.702 214.882 250.969 215.171 250.107ZM211.249 250.835C210.953 250.476 210.719 250.058 210.567 249.591C209.917 247.59 211.023 245.419 213.025 244.769L218.484 242.996C218.77 242.902 219.06 242.845 219.35 242.821C218.758 243.442 218.403 244.236 218.314 245.063L213.615 246.59C212.615 246.914 212.062 247.999 212.387 249.001C212.521 249.413 212.785 249.75 213.119 249.98C212.792 250.456 212.257 250.781 211.64 250.814L211.249 250.835Z" fill="white" fill-opacity="0.35"/>
<path fill-rule="evenodd" clip-rule="evenodd" d="M223.336 247.251L228.222 245.076C229.184 244.647 229.62 243.511 229.192 242.549C228.942 241.99 228.452 241.608 227.896 241.471C227.99 241.072 228.211 240.7 228.552 240.423L229.174 239.92C229.933 240.303 230.569 240.939 230.94 241.771C231.796 243.694 230.923 245.967 229 246.824L223.756 249.158C223.159 249.424 222.527 249.523 221.915 249.476C222.631 248.928 223.14 248.138 223.336 247.251ZM219.511 248.384C219.18 248.058 218.904 247.667 218.704 247.219C217.848 245.296 218.72 243.023 220.643 242.167L225.887 239.832C226.163 239.709 226.446 239.622 226.731 239.569C226.207 240.246 225.937 241.074 225.934 241.905L221.422 243.915C220.46 244.343 220.024 245.479 220.452 246.441C220.629 246.837 220.926 247.145 221.282 247.339C221.008 247.846 220.509 248.226 219.899 248.322L219.511 248.384Z" fill="white" fill-opacity="0.35"/>
<path fill-rule="evenodd" clip-rule="evenodd" d="M231.158 243.556L235.79 240.882C236.702 240.356 237.016 239.18 236.49 238.269C236.184 237.737 235.657 237.409 235.09 237.332C235.141 236.924 235.322 236.532 235.632 236.221L236.198 235.655C236.993 235.958 237.692 236.523 238.148 237.312C239.2 239.135 238.569 241.487 236.747 242.539L231.775 245.409C231.209 245.737 230.592 245.901 229.977 245.917C230.632 245.298 231.056 244.459 231.158 243.556ZM227.473 245.083C227.11 244.794 226.794 244.433 226.549 244.009C225.496 242.187 226.126 239.834 227.949 238.781L232.92 235.911C233.181 235.761 233.453 235.645 233.731 235.561C233.281 236.29 233.099 237.14 233.184 237.969L228.905 240.439C227.995 240.965 227.679 242.141 228.205 243.052C228.423 243.428 228.75 243.703 229.125 243.858C228.905 244.392 228.449 244.822 227.852 244.981L227.473 245.083Z" fill="white" fill-opacity="0.35"/>
<path fill-rule="evenodd" clip-rule="evenodd" d="M238.551 239.064L242.878 235.921C243.73 235.303 243.92 234.1 243.302 233.248C242.941 232.753 242.383 232.481 241.81 232.463C241.818 232.053 241.957 231.643 242.234 231.302L242.737 230.68C243.559 230.898 244.314 231.387 244.849 232.124C246.086 233.827 245.705 236.231 244.003 237.469L239.359 240.843C238.83 241.228 238.233 241.455 237.624 241.536C238.21 240.852 238.544 239.973 238.551 239.064ZM235.046 240.968C234.654 240.719 234.302 240.393 234.014 239.997C232.777 238.293 233.158 235.889 234.86 234.651L239.504 231.277C239.748 231.1 240.007 230.956 240.275 230.844C239.904 231.616 239.81 232.482 239.982 233.295L235.985 236.199C235.133 236.817 234.943 238.02 235.561 238.872C235.817 239.223 236.172 239.462 236.56 239.578C236.398 240.131 235.989 240.606 235.412 240.828L235.046 240.968Z" fill="white" fill-opacity="0.35"/>
<path fill-rule="evenodd" clip-rule="evenodd" d="M245.434 233.825L249.409 230.246C250.191 229.542 250.254 228.326 249.55 227.543C249.14 227.088 248.556 226.877 247.986 226.918C247.951 226.51 248.047 226.087 248.285 225.719L248.721 225.048C249.561 225.179 250.363 225.587 250.973 226.263C252.381 227.827 252.254 230.259 250.689 231.668L246.424 235.509C245.938 235.947 245.367 236.236 244.77 236.379C245.282 235.637 245.521 234.729 245.434 233.825ZM242.147 236.084C241.731 235.877 241.348 235.59 241.019 235.226C239.611 233.662 239.738 231.23 241.302 229.821L245.568 225.98C245.792 225.778 246.035 225.609 246.289 225.469C246 226.276 245.998 227.146 246.253 227.938L242.582 231.243C241.8 231.947 241.737 233.163 242.441 233.946C242.732 234.269 243.109 234.468 243.508 234.542C243.404 235.11 243.047 235.626 242.496 235.906L242.147 236.084Z" fill="white" fill-opacity="0.35"/>
<path fill-rule="evenodd" clip-rule="evenodd" d="M251.732 227.894L255.31 223.92C256.014 223.138 255.951 221.921 255.169 221.217C254.714 220.806 254.11 220.658 253.547 220.758C253.47 220.357 253.521 219.927 253.72 219.536L254.083 218.822C254.932 218.864 255.772 219.185 256.45 219.795C258.014 221.204 258.141 223.636 256.733 225.199L252.891 229.466C252.454 229.952 251.917 230.299 251.338 230.504C251.769 229.713 251.913 228.784 251.732 227.894ZM248.699 230.484C248.264 230.322 247.852 230.077 247.487 229.749C245.923 228.341 245.796 225.908 247.204 224.344L251.045 220.079C251.247 219.854 251.47 219.66 251.708 219.495C251.506 220.327 251.595 221.193 251.931 221.954L248.626 225.625C247.921 226.407 247.986 227.622 248.768 228.327C249.09 228.617 249.487 228.777 249.891 228.81C249.847 229.385 249.546 229.934 249.028 230.271L248.699 230.484Z" fill="white" fill-opacity="0.35"/>
<path fill-rule="evenodd" clip-rule="evenodd" d="M257.375 221.337L260.519 217.01C261.138 216.159 260.947 214.957 260.095 214.338C259.599 213.978 258.984 213.892 258.434 214.051C258.316 213.659 258.321 213.227 258.479 212.817L258.766 212.069C259.615 212.022 260.483 212.254 261.22 212.79C262.923 214.027 263.304 216.432 262.066 218.135L258.693 222.779C258.308 223.308 257.811 223.71 257.257 223.975C257.603 223.142 257.648 222.204 257.375 221.337ZM254.629 224.231C254.179 224.115 253.745 223.914 253.347 223.626C251.645 222.388 251.264 219.983 252.501 218.28L255.875 213.637C256.052 213.393 256.254 213.176 256.473 212.986C256.359 213.835 256.539 214.687 256.952 215.408L254.049 219.405C253.43 220.257 253.621 221.46 254.472 222.077C254.823 222.333 255.235 222.45 255.64 222.44C255.656 223.017 255.414 223.595 254.934 223.984L254.629 224.231Z" fill="white" fill-opacity="0.35"/>
<path fill-rule="evenodd" clip-rule="evenodd" d="M262.302 214.226L264.976 209.595C265.502 208.684 265.187 207.508 264.276 206.981C263.745 206.675 263.124 206.654 262.594 206.87C262.435 206.493 262.395 206.062 262.509 205.637L262.716 204.864C263.555 204.729 264.443 204.869 265.232 205.324C267.055 206.376 267.686 208.729 266.633 210.552L263.763 215.523C263.436 216.09 262.984 216.54 262.46 216.862C262.717 215.998 262.664 215.06 262.302 214.226ZM259.874 217.391C259.414 217.323 258.961 217.169 258.536 216.923C256.713 215.871 256.082 213.519 257.135 211.697L260.005 206.725C260.156 206.464 260.334 206.227 260.533 206.016C260.507 206.873 260.775 207.701 261.262 208.375L258.792 212.653C258.266 213.564 258.581 214.741 259.492 215.267C259.869 215.484 260.289 215.557 260.692 215.505C260.768 216.077 260.588 216.677 260.151 217.115L259.874 217.391Z" fill="white" fill-opacity="0.35"/>
<path fill-rule="evenodd" clip-rule="evenodd" d="M266.459 206.64L268.634 201.755C269.062 200.793 268.626 199.656 267.664 199.229C267.105 198.979 266.484 199.023 265.98 199.293C265.783 198.935 265.698 198.51 265.767 198.077L265.892 197.286C266.713 197.063 267.611 197.11 268.443 197.481C270.366 198.336 271.238 200.61 270.382 202.532L268.047 207.776C267.781 208.374 267.379 208.87 266.891 209.245C267.057 208.358 266.906 207.431 266.459 206.64ZM264.374 210.041C263.911 210.021 263.444 209.916 262.996 209.716C261.072 208.86 260.2 206.586 261.055 204.664L263.39 199.42C263.513 199.144 263.665 198.89 263.841 198.66C263.905 199.514 264.257 200.309 264.812 200.929L262.803 205.442C262.376 206.403 262.812 207.54 263.773 207.968C264.17 208.144 264.597 208.174 264.991 208.08C265.127 208.641 265.01 209.256 264.621 209.736L264.374 210.041Z" fill="white" fill-opacity="0.35"/>
<path fill-rule="evenodd" clip-rule="evenodd" d="M269.799 198.661L271.452 193.575C271.778 192.573 271.224 191.488 270.224 191.164C269.641 190.974 269.029 191.083 268.556 191.404C268.322 191.067 268.193 190.655 268.217 190.216L268.258 189.417C269.051 189.11 269.948 189.062 270.815 189.343C272.816 189.993 273.922 192.164 273.272 194.165L271.498 199.625C271.296 200.247 270.947 200.782 270.502 201.205C270.574 200.307 270.327 199.4 269.799 198.661ZM268.082 202.261C267.619 202.289 267.143 202.233 266.676 202.081C264.674 201.431 263.569 199.261 264.219 197.259L265.993 191.8C266.087 191.514 266.211 191.245 266.362 190.998C266.516 191.84 266.948 192.594 267.565 193.153L266.039 197.851C265.714 198.852 266.266 199.937 267.268 200.262C267.68 200.396 268.108 200.381 268.49 200.246C268.684 200.79 268.632 201.414 268.295 201.933L268.082 202.261Z" fill="white" fill-opacity="0.35"/>
<path fill-rule="evenodd" clip-rule="evenodd" d="M272.288 190.375L273.4 185.144C273.619 184.115 272.956 183.094 271.927 182.875C271.327 182.748 270.729 182.919 270.292 183.289C270.024 182.979 269.854 182.582 269.83 182.143L269.789 181.344C270.545 180.955 271.433 180.814 272.324 181.003C274.383 181.441 275.709 183.483 275.272 185.542L274.078 191.157C273.942 191.797 273.651 192.366 273.253 192.833C273.23 191.932 272.89 191.057 272.288 190.375ZM270.957 194.136C270.499 194.212 270.02 194.206 269.539 194.104C267.481 193.667 266.155 191.624 266.592 189.565L267.786 183.951C267.848 183.656 267.944 183.375 268.068 183.114C268.309 183.936 268.819 184.641 269.49 185.131L268.463 189.964C268.245 190.993 268.908 192.014 269.937 192.233C270.362 192.323 270.785 192.263 271.152 192.089C271.401 192.61 271.415 193.236 271.135 193.787L270.957 194.136Z" fill="white" fill-opacity="0.35"/>
<path fill-rule="evenodd" clip-rule="evenodd" d="M273.897 181.876L274.456 176.557C274.566 175.511 273.8 174.564 272.753 174.454C272.143 174.39 271.567 174.624 271.172 175.036C270.872 174.756 270.661 174.379 270.592 173.945L270.467 173.154C271.178 172.689 272.047 172.456 272.953 172.551C275.046 172.771 276.579 174.664 276.359 176.757L275.759 182.466C275.691 183.116 275.461 183.713 275.113 184.219C274.996 183.325 274.567 182.49 273.897 181.876ZM272.966 185.755C272.518 185.879 272.041 185.922 271.553 185.872C269.46 185.651 267.927 183.759 268.148 181.666L268.747 175.957C268.779 175.657 268.845 175.368 268.941 175.095C269.266 175.887 269.847 176.535 270.567 176.953L270.05 181.866C269.94 182.913 270.706 183.859 271.753 183.969C272.185 184.014 272.6 183.91 272.946 183.699C273.248 184.19 273.328 184.812 273.107 185.389L272.966 185.755Z" fill="white" fill-opacity="0.35"/>
<path fill-rule="evenodd" clip-rule="evenodd" d="M274.609 173.255V167.907C274.609 166.854 273.747 165.993 272.695 165.993C272.082 165.993 271.534 166.286 271.183 166.738C270.856 166.49 270.607 166.137 270.493 165.713L270.286 164.94C270.945 164.403 271.784 164.08 272.695 164.08C274.8 164.08 276.522 165.801 276.522 167.907V173.647C276.522 174.301 276.356 174.918 276.063 175.457C275.853 174.581 275.339 173.795 274.609 173.255ZM274.088 177.209C273.655 177.38 273.185 177.473 272.695 177.473C270.59 177.473 268.869 175.751 268.869 173.647V167.907C268.869 167.605 268.904 167.311 268.971 167.029C269.378 167.783 270.022 168.367 270.782 168.707V173.647C270.782 174.699 271.643 175.56 272.695 175.56C273.129 175.56 273.531 175.413 273.853 175.167C274.205 175.624 274.349 176.234 274.19 176.831L274.088 177.209Z" fill="white" fill-opacity="0.35"/>
<path fill-rule="evenodd" clip-rule="evenodd" d="M274.415 164.606L273.856 159.288C273.746 158.241 272.8 157.474 271.753 157.584C271.144 157.649 270.629 157.997 270.327 158.483C269.976 158.271 269.691 157.945 269.534 157.536L269.247 156.789C269.846 156.185 270.647 155.776 271.553 155.681C273.646 155.462 275.539 156.994 275.759 159.087L276.359 164.795C276.428 165.447 276.326 166.077 276.092 166.645C275.792 165.795 275.198 165.068 274.415 164.606ZM274.31 168.593C273.899 168.808 273.441 168.95 272.953 169.002C270.86 169.222 268.968 167.689 268.747 165.596L268.148 159.887C268.116 159.587 268.12 159.291 268.158 159.004C268.64 159.711 269.343 160.224 270.134 160.483L270.65 165.396C270.76 166.443 271.706 167.209 272.753 167.099C273.185 167.053 273.569 166.865 273.864 166.587C274.261 167.004 274.468 167.597 274.372 168.206L274.31 168.593Z" fill="white" fill-opacity="0.35"/>
<path fill-rule="evenodd" clip-rule="evenodd" d="M273.319 156.025L272.207 150.794C271.988 149.764 270.967 149.101 269.937 149.321C269.338 149.448 268.862 149.848 268.613 150.363C268.242 150.189 267.925 149.895 267.725 149.504L267.361 148.791C267.895 148.129 268.648 147.638 269.539 147.448C271.598 147.011 273.641 148.337 274.078 150.396L275.272 156.011C275.408 156.651 275.374 157.288 275.199 157.878C274.812 157.064 274.145 156.402 273.319 156.025ZM273.632 160.002C273.245 160.258 272.805 160.448 272.324 160.549C270.266 160.988 268.223 159.66 267.786 157.602L266.592 151.987C266.529 151.693 266.503 151.398 266.509 151.108C267.065 151.761 267.817 152.197 268.63 152.372L269.657 157.204C269.876 158.234 270.897 158.897 271.927 158.678C272.351 158.587 272.714 158.361 272.978 158.053C273.417 158.427 273.685 158.993 273.652 159.611L273.632 160.002Z" fill="white" fill-opacity="0.35"/>
<path fill-rule="evenodd" clip-rule="evenodd" d="M271.331 147.606L269.679 142.519C269.353 141.519 268.268 140.966 267.268 141.291C266.684 141.481 266.254 141.928 266.059 142.467C265.672 142.331 265.326 142.073 265.086 141.705L264.651 141.033C265.111 140.319 265.81 139.753 266.676 139.471C268.678 138.821 270.848 139.927 271.498 141.929L273.272 147.388C273.474 148.01 273.507 148.647 273.395 149.252C272.925 148.483 272.193 147.895 271.331 147.606ZM272.058 151.528C271.7 151.823 271.282 152.058 270.815 152.21C268.813 152.86 266.644 151.754 265.993 149.752L264.219 144.293C264.126 144.007 264.069 143.716 264.046 143.427C264.665 144.019 265.459 144.374 266.286 144.463L267.813 149.161C268.138 150.162 269.223 150.715 270.224 150.39C270.637 150.256 270.973 149.992 271.204 149.658C271.68 149.984 272.005 150.52 272.037 151.137L272.058 151.528Z" fill="white" fill-opacity="0.35"/>
<path fill-rule="evenodd" clip-rule="evenodd" d="M268.475 139.44L266.299 134.555C265.872 133.593 264.734 133.157 263.773 133.585C263.213 133.835 262.831 134.325 262.694 134.881C262.296 134.787 261.924 134.566 261.647 134.225L261.143 133.602C261.527 132.844 262.163 132.207 262.995 131.837C264.917 130.981 267.192 131.854 268.047 133.777L270.382 139.021C270.648 139.618 270.747 140.25 270.699 140.862C270.151 140.146 269.361 139.637 268.475 139.44ZM269.607 143.265C269.282 143.597 268.89 143.873 268.442 144.073C266.52 144.928 264.246 144.056 263.39 142.134L261.055 136.89C260.933 136.614 260.846 136.331 260.792 136.046C261.47 136.57 262.297 136.84 263.129 136.843L265.138 141.355C265.566 142.316 266.703 142.753 267.664 142.325C268.061 142.148 268.368 141.851 268.562 141.494C269.07 141.769 269.449 142.268 269.546 142.878L269.607 143.265Z" fill="white" fill-opacity="0.35"/>
<path fill-rule="evenodd" clip-rule="evenodd" d="M264.781 131.619L262.107 126.987C261.58 126.075 260.404 125.76 259.492 126.287C258.962 126.593 258.633 127.12 258.555 127.687C258.149 127.636 257.756 127.455 257.445 127.145L256.879 126.579C257.181 125.784 257.747 125.085 258.536 124.63C260.359 123.577 262.711 124.208 263.763 126.03L266.633 131.001C266.96 131.568 267.125 132.186 267.142 132.799C266.522 132.145 265.683 131.721 264.781 131.619ZM266.307 135.303C266.018 135.667 265.658 135.984 265.232 136.228C263.41 137.281 261.058 136.65 260.005 134.828L257.135 129.857C256.984 129.596 256.868 129.324 256.785 129.045C257.514 129.495 258.365 129.678 259.192 129.593L261.662 133.871C262.188 134.783 263.365 135.097 264.276 134.571C264.652 134.354 264.927 134.026 265.083 133.652C265.616 133.872 266.045 134.328 266.206 134.925L266.307 135.303Z" fill="white" fill-opacity="0.35"/>
<path fill-rule="evenodd" clip-rule="evenodd" d="M260.289 124.225L257.145 119.898C256.526 119.047 255.323 118.857 254.472 119.475C253.976 119.836 253.705 120.394 253.687 120.967C253.277 120.958 252.867 120.819 252.526 120.543L251.904 120.039C252.121 119.217 252.61 118.463 253.348 117.927C255.05 116.69 257.456 117.071 258.693 118.774L262.067 123.418C262.451 123.947 262.68 124.544 262.761 125.153C262.076 124.567 261.197 124.233 260.289 124.225ZM262.192 127.731C261.942 128.123 261.618 128.475 261.22 128.763C259.518 130 257.112 129.619 255.875 127.917L252.501 123.273C252.324 123.029 252.18 122.77 252.068 122.502C252.841 122.873 253.705 122.966 254.52 122.795L257.423 126.792C258.042 127.643 259.245 127.833 260.095 127.215C260.447 126.96 260.686 126.605 260.801 126.216C261.355 126.379 261.83 126.788 262.051 127.365L262.192 127.731Z" fill="white" fill-opacity="0.35"/>
<path fill-rule="evenodd" clip-rule="evenodd" d="M255.048 117.342L251.47 113.368C250.766 112.586 249.55 112.522 248.768 113.227C248.312 113.637 248.1 114.221 248.142 114.791C247.734 114.826 247.312 114.73 246.943 114.491L246.272 114.056C246.403 113.216 246.81 112.414 247.487 111.804C249.052 110.396 251.483 110.523 252.891 112.087L256.733 116.353C257.17 116.839 257.459 117.409 257.604 118.006C256.862 117.495 255.953 117.255 255.048 117.342ZM257.308 120.629C257.1 121.046 256.814 121.429 256.45 121.758C254.885 123.166 252.453 123.039 251.045 121.475L247.204 117.209C247.002 116.985 246.832 116.742 246.693 116.488C247.5 116.776 248.369 116.778 249.161 116.523L252.467 120.194C253.171 120.976 254.387 121.04 255.169 120.335C255.492 120.045 255.692 119.667 255.767 119.269C256.334 119.373 256.849 119.729 257.13 120.28L257.308 120.629Z" fill="white" fill-opacity="0.35"/>
<path fill-rule="evenodd" clip-rule="evenodd" d="M249.118 111.045L245.143 107.466C244.361 106.762 243.145 106.825 242.441 107.608C242.031 108.063 241.881 108.667 241.983 109.23C241.58 109.306 241.15 109.256 240.759 109.057L240.046 108.693C240.088 107.844 240.41 107.005 241.019 106.327C242.427 104.763 244.859 104.635 246.424 106.044L250.689 109.885C251.175 110.323 251.522 110.859 251.728 111.438C250.936 111.007 250.008 110.864 249.118 111.045ZM251.708 114.078C251.545 114.513 251.301 114.925 250.973 115.289C249.564 116.854 247.132 116.981 245.568 115.572L241.302 111.732C241.078 111.53 240.883 111.307 240.719 111.069C241.551 111.271 242.416 111.182 243.177 110.845L246.848 114.151C247.63 114.855 248.846 114.791 249.55 114.009C249.841 113.686 250.001 113.29 250.033 112.885C250.608 112.93 251.158 113.231 251.494 113.749L251.708 114.078Z" fill="white" fill-opacity="0.35"/>
<path fill-rule="evenodd" clip-rule="evenodd" d="M242.561 105.401L238.234 102.258C237.383 101.639 236.18 101.83 235.561 102.682C235.201 103.177 235.116 103.793 235.276 104.342C234.883 104.46 234.45 104.455 234.04 104.298L233.293 104.011C233.246 103.162 233.479 102.293 234.014 101.557C235.251 99.8542 237.656 99.4732 239.359 100.71L244.003 104.084C244.531 104.469 244.933 104.966 245.198 105.52C244.366 105.174 243.428 105.128 242.561 105.401ZM245.455 108.148C245.338 108.597 245.137 109.032 244.849 109.429C243.613 111.132 241.207 111.513 239.504 110.276L234.86 106.901C234.616 106.725 234.399 106.523 234.211 106.303C235.06 106.418 235.91 106.238 236.633 105.825L240.629 108.727C241.48 109.346 242.683 109.156 243.301 108.305C243.556 107.953 243.674 107.542 243.664 107.136C244.24 107.12 244.819 107.362 245.208 107.843L245.455 108.148Z" fill="white" fill-opacity="0.35"/>
<path fill-rule="evenodd" clip-rule="evenodd" d="M235.451 100.475L230.819 97.8005C229.908 97.2744 228.731 97.5892 228.205 98.5008C227.898 99.0315 227.878 99.6528 228.094 100.183C227.716 100.341 227.285 100.381 226.862 100.268L226.088 100.061C225.953 99.221 226.092 98.333 226.549 97.5438C227.601 95.7215 229.953 95.0911 231.775 96.1433L236.747 99.0133C237.313 99.3408 237.765 99.7934 238.086 100.317C237.222 100.06 236.283 100.113 235.451 100.475ZM238.616 102.903C238.547 103.362 238.392 103.816 238.148 104.241C237.095 106.063 234.742 106.694 232.92 105.641L227.949 102.771C227.688 102.621 227.451 102.443 227.24 102.244C228.096 102.269 228.924 102.002 229.599 101.515L233.877 103.984C234.788 104.511 235.964 104.196 236.49 103.284C236.708 102.908 236.781 102.487 236.729 102.085C237.301 102.009 237.901 102.189 238.338 102.625L238.616 102.903Z" fill="white" fill-opacity="0.35"/>
<path fill-rule="evenodd" clip-rule="evenodd" d="M227.864 96.3184L222.978 94.1423C222.017 93.715 220.88 94.1513 220.452 95.1119C220.202 95.6725 220.247 96.2921 220.517 96.7964C220.158 96.9942 219.734 97.0785 219.3 97.0105L218.509 96.8844C218.287 96.0644 218.334 95.1664 218.704 94.3337C219.56 92.4115 221.833 91.5389 223.756 92.3943L229 94.7291C229.598 94.9958 230.094 95.3986 230.468 95.8857C229.583 95.7197 228.655 95.8703 227.864 96.3184ZM231.265 98.402C231.244 98.8664 231.139 99.3335 230.94 99.7816C230.083 101.705 227.81 102.577 225.887 101.721L220.643 99.3862C220.368 99.2637 220.114 99.1122 219.883 98.9362C220.738 98.8709 221.533 98.519 222.153 97.9638L226.666 99.973C227.627 100.401 228.764 99.9649 229.192 99.0034C229.369 98.607 229.398 98.1797 229.303 97.786C229.865 97.65 230.48 97.7661 230.961 98.1552L231.265 98.402Z" fill="white" fill-opacity="0.35"/>
<path fill-rule="evenodd" clip-rule="evenodd" d="M219.884 92.9767L214.798 91.324C213.798 90.9992 212.713 91.5516 212.387 92.5531C212.197 93.1363 212.306 93.7477 212.628 94.2212C212.292 94.4552 211.878 94.5831 211.44 94.5604L210.641 94.5187C210.333 93.7259 210.286 92.8279 210.567 91.9616C211.218 89.9597 213.388 88.8539 215.39 89.5043L220.848 91.2786C221.471 91.4809 222.006 91.8292 222.429 92.2746C221.531 92.2029 220.624 92.4497 219.884 92.9767ZM223.485 94.6947C223.513 95.1582 223.457 95.6335 223.306 96.1007C222.655 98.1017 220.486 99.2075 218.484 98.5571L213.025 96.7837C212.737 96.6903 212.469 96.566 212.221 96.4155C213.065 96.2612 213.818 95.8277 214.377 95.2108L219.075 96.7375C220.076 97.0631 221.16 96.5098 221.486 95.5093C221.62 95.0956 221.605 94.6684 221.47 94.2865C222.013 94.0924 222.638 94.1441 223.156 94.4806L223.485 94.6947Z" fill="white" fill-opacity="0.35"/>
<path fill-rule="evenodd" clip-rule="evenodd" d="M211.6 90.4885L206.368 89.3764C205.339 89.1578 204.318 89.8209 204.099 90.8504C203.971 91.45 204.143 92.0469 204.513 92.4841C204.202 92.7517 203.805 92.9231 203.367 92.9458L202.567 92.9875C202.18 92.2319 202.038 91.3439 202.228 90.4522C202.665 88.394 204.708 87.0679 206.766 87.5051L212.381 88.6988C213.02 88.8349 213.59 89.1251 214.057 89.5243C213.156 89.5469 212.28 89.8862 211.6 90.4885ZM215.36 91.8201C215.437 92.2782 215.43 92.7571 215.328 93.237C214.891 95.2961 212.848 96.6222 210.79 96.185L205.175 94.9913C204.88 94.9287 204.6 94.8325 204.337 94.7083C205.16 94.4679 205.864 93.9581 206.356 93.286L211.187 94.3128C212.216 94.5323 213.238 93.8683 213.456 92.8397C213.547 92.4142 213.487 91.9906 213.313 91.6251C213.833 91.3756 214.46 91.3611 215.01 91.6423L215.36 91.8201Z" fill="white" fill-opacity="0.35"/>
<path fill-rule="evenodd" clip-rule="evenodd" d="M203.1 88.8793L197.781 88.3206C196.734 88.2108 195.788 88.9773 195.678 90.0232C195.614 90.6336 195.847 91.2087 196.261 91.6051C195.98 91.9045 195.602 92.1158 195.169 92.1848L194.379 92.3099C193.913 91.5979 193.68 90.7298 193.775 89.8236C193.995 87.73 195.888 86.198 197.981 86.4175L203.69 87.018C204.34 87.086 204.936 87.3164 205.443 87.6638C204.55 87.7799 203.713 88.2099 203.1 88.8793ZM206.979 89.8109C207.102 90.2581 207.147 90.7352 207.095 91.2232C206.876 93.3168 204.983 94.8489 202.89 94.6294L197.181 94.0289C196.881 93.998 196.593 93.9318 196.319 93.8357C197.112 93.51 197.759 92.9295 198.177 92.2102L203.089 92.7263C204.136 92.836 205.082 92.0705 205.193 91.0237C205.238 90.5919 205.134 90.1765 204.923 89.8309C205.414 89.5288 206.036 89.449 206.613 89.6703L206.979 89.8109Z" fill="white" fill-opacity="0.35"/>
<path d="M177.686 235.194L176.914 238.822L175.75 238.574L177.72 229.307L180.672 229.934C181.118 230.029 181.501 230.185 181.815 230.398C182.131 230.612 182.379 230.87 182.56 231.171C182.738 231.472 182.853 231.809 182.898 232.18C182.947 232.552 182.927 232.945 182.84 233.356C182.746 233.801 182.6 234.186 182.404 234.51C182.209 234.836 181.969 235.091 181.682 235.278C181.396 235.467 181.067 235.586 180.697 235.638C180.328 235.689 179.919 235.668 179.474 235.574L177.686 235.194ZM177.898 234.195L179.686 234.574C179.97 234.635 180.223 234.643 180.444 234.597C180.665 234.551 180.856 234.46 181.018 234.328C181.182 234.199 181.318 234.029 181.426 233.822C181.533 233.618 181.617 233.384 181.673 233.121C181.724 232.884 181.74 232.648 181.726 232.411C181.712 232.176 181.658 231.958 181.564 231.76C181.472 231.565 181.336 231.392 181.156 231.25C180.975 231.105 180.743 231 180.458 230.94L178.671 230.56L177.898 234.195ZM187.926 236.083L184.587 235.791L184.295 239.135L188.184 239.476L188.095 240.494L183.02 240.049L183.845 230.612L188.857 231.05L188.767 232.074L184.942 231.74L184.676 234.773L188.015 235.065L187.926 236.083ZM192.503 236.661H190.837V240.494H189.64V231.019H192.294C193.222 231.019 193.926 231.262 194.404 231.746C194.878 232.23 195.119 232.939 195.119 233.871C195.119 234.455 194.99 234.966 194.73 235.404C194.473 235.839 194.108 236.168 193.636 236.388L195.47 240.417V240.494H194.188L192.503 236.661ZM190.837 235.639H192.28C192.553 235.639 192.794 235.592 192.998 235.499C193.2 235.406 193.371 235.282 193.509 235.124C193.644 234.964 193.749 234.777 193.817 234.564C193.887 234.349 193.921 234.118 193.921 233.871C193.921 233.598 193.89 233.349 193.831 233.125C193.769 232.902 193.673 232.71 193.544 232.551C193.413 232.39 193.246 232.266 193.041 232.179C192.834 232.092 192.584 232.048 192.294 232.048H190.837V235.639ZM200.573 237.573C200.549 237.353 200.504 237.161 200.438 236.999C200.37 236.836 200.263 236.69 200.113 236.566C199.964 236.438 199.769 236.328 199.529 236.228C199.286 236.128 198.979 236.033 198.604 235.943C198.201 235.849 197.833 235.734 197.5 235.597C197.166 235.46 196.878 235.292 196.632 235.092C196.387 234.894 196.188 234.658 196.037 234.386C195.888 234.113 195.792 233.796 195.753 233.429C195.715 233.062 195.743 232.716 195.838 232.388C195.931 232.063 196.084 231.773 196.296 231.516C196.506 231.262 196.771 231.05 197.094 230.888C197.414 230.722 197.777 230.618 198.189 230.575C198.646 230.528 199.059 230.565 199.426 230.686C199.795 230.809 200.113 230.989 200.381 231.227C200.647 231.466 200.86 231.75 201.017 232.083C201.174 232.417 201.271 232.766 201.31 233.133L200.119 233.258C200.091 232.995 200.035 232.754 199.95 232.536C199.862 232.318 199.744 232.133 199.592 231.985C199.442 231.835 199.259 231.725 199.045 231.656C198.831 231.586 198.581 231.569 198.296 231.598C198.034 231.626 197.81 231.688 197.629 231.785C197.446 231.884 197.304 232.006 197.193 232.154C197.084 232.304 197.011 232.474 196.973 232.666C196.935 232.858 196.926 233.063 196.948 233.283C196.99 233.68 197.169 233.996 197.482 234.234C197.794 234.472 198.259 234.666 198.876 234.814C199.349 234.917 199.759 235.042 200.108 235.191C200.454 235.34 200.745 235.521 200.978 235.732C201.212 235.944 201.392 236.188 201.519 236.466C201.647 236.746 201.73 237.068 201.769 237.434C201.808 237.819 201.781 238.173 201.683 238.497C201.588 238.82 201.43 239.104 201.214 239.351C200.998 239.597 200.726 239.795 200.399 239.95C200.07 240.106 199.692 240.205 199.264 240.251C198.893 240.29 198.522 240.265 198.149 240.185C197.776 240.1 197.434 239.954 197.127 239.745C196.819 239.536 196.561 239.259 196.348 238.919C196.136 238.581 196.004 238.176 195.954 237.706L197.146 237.581C197.18 237.903 197.257 238.176 197.376 238.397C197.495 238.619 197.646 238.795 197.827 238.927C198.009 239.063 198.213 239.153 198.441 239.2C198.67 239.25 198.908 239.26 199.157 239.234C199.68 239.179 200.058 239.004 200.295 238.708C200.529 238.414 200.621 238.035 200.573 237.573ZM207.401 236.146L204.27 236.811L204.065 239.382L202.868 239.637L203.883 229.735L204.883 229.522L209.843 238.154L208.646 238.409L207.401 236.146ZM204.361 235.74L206.889 235.203L204.727 231.259L204.361 235.74Z" fill="white" fill-opacity="0.35"/>
</svg>
