<svg width="48" height="48" viewBox="0 0 48 48" fill="none" xmlns="http://www.w3.org/2000/svg">
<path d="M38.3996 21.68V16C35.7396 16 33.7096 15.29 32.3996 13.91C31.0551 12.335 30.3019 10.3405 30.2696 8.27V7.86L24.8996 7.73V30.8C24.7154 31.8066 24.2268 32.7324 23.4998 33.4524C22.7727 34.1725 21.8422 34.6522 20.834 34.8267C19.8257 35.0012 18.7881 34.8621 17.8614 34.4282C16.9346 33.9944 16.1633 33.2866 15.6515 32.4005C15.1398 31.5144 14.9122 30.4926 14.9995 29.4731C15.0869 28.4535 15.485 27.4853 16.14 26.6992C16.7951 25.9131 17.6755 25.3468 18.6626 25.0769C19.6496 24.8071 20.6957 24.8465 21.6596 25.19V19.69C21.0976 19.5979 20.5291 19.5511 19.9596 19.55C17.9106 19.55 15.9076 20.1576 14.2039 21.296C12.5002 22.4343 11.1723 24.0524 10.3882 25.9454C9.6041 27.8384 9.39894 29.9215 9.79868 31.9311C10.1984 33.9408 11.1851 35.7868 12.634 37.2356C14.0829 38.6845 15.9288 39.6712 17.9385 40.0709C19.9481 40.4707 22.0312 40.2655 23.9242 39.4814C25.8173 38.6973 27.4353 37.3694 28.5736 35.6657C29.712 33.962 30.3196 31.959 30.3196 29.91C30.3185 29.4854 30.2918 29.0613 30.2396 28.64V19.49C32.6814 21.0149 35.5224 21.7774 38.3996 21.68Z" fill="white" fill-opacity="0.52"/>
</svg>
