<svg width="42" height="42" viewBox="0 0 42 42" fill="none" xmlns="http://www.w3.org/2000/svg">
<path d="M42 9.28988C40.4201 9.97895 38.7492 10.4369 37.0387 10.6496C38.8413 9.58028 40.189 7.88698 40.8266 5.8905C39.1388 6.89151 37.2922 7.59643 35.3666 7.97475C34.186 6.71417 32.6536 5.83779 30.9684 5.45946C29.2832 5.08114 27.5233 5.21835 25.9171 5.85329C24.3109 6.48823 22.9328 7.59153 21.9619 9.01986C20.9909 10.4482 20.4719 12.1355 20.4724 13.8626C20.4724 14.5451 20.5301 15.2014 20.6719 15.8261C17.2465 15.6582 13.8951 14.7692 10.8368 13.2172C7.77852 11.6652 5.08225 9.48522 2.92425 6.81975C1.81865 8.71463 1.47685 10.9597 1.96844 13.0977C2.46004 15.2358 3.74806 17.1061 5.57025 18.3278C4.20724 18.2912 2.87299 17.9275 1.68 17.2673V17.3618C1.68228 19.35 2.3695 21.2768 3.62596 22.8177C4.88242 24.3586 6.6314 25.4196 8.5785 25.8221C7.84189 26.0163 7.08274 26.1116 6.321 26.1056C5.77392 26.1154 5.22739 26.0661 4.69088 25.9586C5.24722 27.6676 6.31966 29.162 7.76053 30.2362C9.20141 31.3104 10.9398 31.9115 12.7365 31.9568C9.68871 34.3404 5.92981 35.6334 2.06063 35.6291C1.3545 35.6291 0.67725 35.5976 0 35.511C3.93719 38.0482 8.52515 39.3903 13.209 39.375C29.0535 39.375 37.716 26.25 37.716 14.8733C37.716 14.4926 37.7029 14.1251 37.6845 13.7603C39.3828 12.5448 40.8452 11.0299 42 9.28988Z" fill="#03A9F4"/>
</svg>
