<svg width="51" height="36" viewBox="0 0 51 36" fill="none" xmlns="http://www.w3.org/2000/svg">
<g clip-path="url(#clip0_1028_16)">
<path d="M33.9724 17.4756C29.2963 14.9643 24.8189 12.6555 20.2422 10.245V24.6653C25.0583 22.0341 30.1347 19.6246 33.9923 17.4756H33.9724Z" fill="white"/>
<path d="M33.9724 17.4756C29.2963 14.9643 20.2422 10.245 20.2422 10.245L32.3138 18.3989C32.3138 18.3989 30.1148 19.6246 33.9724 17.4756Z" fill="#E8E0E0"/>
<path d="M21.1218 35.9535C11.4091 35.7737 8.09177 35.6121 6.05272 35.1899C4.67316 34.9094 3.47433 34.2866 2.59531 33.3832C1.91594 32.6995 1.37567 31.6564 0.956501 30.2091C0.596946 29.0034 0.456908 28.0002 0.257261 25.5498C-0.0483606 20.0194 -0.121218 15.498 0.257261 10.4459C0.569506 7.65598 0.720897 4.34404 2.79496 2.41184C3.77427 1.50754 4.9135 0.925601 6.19275 0.685027C8.19112 0.303721 16.705 0.00228882 25.5188 0.00228882C34.3128 0.00228882 42.8456 0.303721 44.8458 0.685027C46.444 0.986458 47.9427 1.8898 48.8227 3.05464C50.7151 6.04613 50.7482 9.766 50.9403 12.6757C51.0198 14.0621 51.0198 21.9345 50.9403 23.3209C50.6413 27.9194 50.401 29.5464 49.7216 31.2332C49.3015 32.2982 48.9429 32.8602 48.3222 33.483C47.3487 34.4415 46.1077 35.079 44.7645 35.3107C36.3594 35.9459 29.2222 36.0837 21.1218 35.9535ZM33.993 17.4758C29.3169 14.9645 24.8395 12.6358 20.2627 10.2253V24.6465C25.0788 22.0153 30.1561 19.6048 34.0128 17.4558L33.993 17.4758Z" fill="#CD201F"/>
</g>
<defs>
<clipPath id="clip0_1028_16">
<rect width="51" height="36" fill="white"/>
</clipPath>
</defs>
</svg>
